solid OpenSCAD_Model
  facet normal -4.44173e-16 -0.842509 0.538682
    outer loop
      vertex 8.62332 24.8146 12.244
      vertex 18.1997 24.6071 11.9195
      vertex 17.5164 24.8146 12.244
    endloop
  endfacet
  facet normal -2.91465e-16 -0.842509 0.538682
    outer loop
      vertex 8.62332 24.8146 12.244
      vertex 7.94008 24.6071 11.9195
      vertex 18.1997 24.6071 11.9195
    endloop
  endfacet
  facet normal 2.6568e-17 -0.0580233 0.998315
    outer loop
      vertex 4.14181 15.6171 6.98529
      vertex 21.9979 15.6171 6.98529
      vertex 21.9932 16.1391 7.01563
    endloop
  endfacet
  facet normal 1.50315e-17 -0.0580233 0.998315
    outer loop
      vertex 4.14655 16.1391 7.01563
      vertex 4.14181 15.6171 6.98529
      vertex 21.9932 16.1391 7.01563
    endloop
  endfacet
  facet normal 2.15948e-15 -0.689997 0.723812
    outer loop
      vertex 18.4364 24.5324 11.8483
      vertex 21.568 22.2167 9.64072
      vertex 21.431 22.4131 9.82797
    endloop
  endfacet
  facet normal 7.19331e-17 -0.689997 0.723812
    outer loop
      vertex 20.3855 23.8991 11.2445
      vertex 18.4364 24.5324 11.8483
      vertex 21.431 22.4131 9.82797
    endloop
  endfacet
  facet normal -9.46342e-15 -0.689997 0.723812
    outer loop
      vertex 18.4364 24.5324 11.8483
      vertex 18.1997 24.6071 11.9195
      vertex 21.568 22.2167 9.64072
    endloop
  endfacet
  facet normal -3.00641e-16 -0.689997 0.723812
    outer loop
      vertex 18.1997 24.6071 11.9195
      vertex 4.5717 22.2167 9.64072
      vertex 21.568 22.2167 9.64072
    endloop
  endfacet
  facet normal -2.38934e-16 -0.689997 0.723812
    outer loop
      vertex 7.94008 24.6071 11.9195
      vertex 4.5717 22.2167 9.64072
      vertex 18.1997 24.6071 11.9195
    endloop
  endfacet
  facet normal 1.91826e-16 -0.689997 0.723812
    outer loop
      vertex 7.70339 24.5324 11.8483
      vertex 4.5717 22.2167 9.64072
      vertex 7.94008 24.6071 11.9195
    endloop
  endfacet
  facet normal 1.51059e-15 -0.689997 0.723812
    outer loop
      vertex 5.75426 23.8991 11.2445
      vertex 4.70878 22.4131 9.82797
      vertex 7.70339 24.5324 11.8483
    endloop
  endfacet
  facet normal -4.5889e-15 -0.689997 0.723812
    outer loop
      vertex 4.70878 22.4131 9.82797
      vertex 4.5717 22.2167 9.64072
      vertex 7.70339 24.5324 11.8483
    endloop
  endfacet
  facet normal -1.19219e-16 -0.28692 0.957955
    outer loop
      vertex 22.0235 19.3382 7.97381
      vertex 4.14655 16.1391 7.01563
      vertex 21.9932 16.1391 7.01563
    endloop
  endfacet
  facet normal -1.23258e-16 -0.28692 0.957955
    outer loop
      vertex 22.0235 19.3382 7.97381
      vertex 4.1163 19.3382 7.97381
      vertex 4.14655 16.1391 7.01563
    endloop
  endfacet
  facet normal -1.85031e-16 -0.501138 0.865368
    outer loop
      vertex 22.0349 19.707 8.18736
      vertex 4.10489 19.707 8.18736
      vertex 4.1163 19.3382 7.97381
    endloop
  endfacet
  facet normal -2.5535e-16 -0.501138 0.865368
    outer loop
      vertex 22.0235 19.3382 7.97381
      vertex 22.0349 19.707 8.18736
      vertex 4.1163 19.3382 7.97381
    endloop
  endfacet
  facet normal -1.85031e-16 -0.501138 0.865368
    outer loop
      vertex 22.0349 19.707 8.18736
      vertex 4.09792 19.9842 8.34788
      vertex 4.10489 19.707 8.18736
    endloop
  endfacet
  facet normal 2.65467e-14 -0.501138 0.865368
    outer loop
      vertex 22.0797 21.4876 9.2185
      vertex 22.0225 21.569 9.26566
      vertex 22.0349 19.707 8.18736
    endloop
  endfacet
  facet normal -8.63065e-17 -0.501138 0.865368
    outer loop
      vertex 22.0225 21.569 9.26566
      vertex 4.09792 19.9842 8.34788
      vertex 22.0349 19.707 8.18736
    endloop
  endfacet
  facet normal -2.02606e-16 -0.501138 0.865368
    outer loop
      vertex 21.568 22.2167 9.64072
      vertex 4.09792 19.9842 8.34788
      vertex 22.0225 21.569 9.26566
    endloop
  endfacet
  facet normal -2.09504e-16 -0.501138 0.865368
    outer loop
      vertex 21.568 22.2167 9.64072
      vertex 4.5717 22.2167 9.64072
      vertex 4.09792 19.9842 8.34788
    endloop
  endfacet
  facet normal -3.61738e-15 -0.501138 0.865368
    outer loop
      vertex 4.5717 22.2167 9.64072
      vertex 4.06007 21.4876 9.2185
      vertex 4.09792 19.9842 8.34788
    endloop
  endfacet
  facet normal -0.816224 0.577674 -0.00844845
    outer loop
      vertex 22.218 5.88664 31.8
      vertex 22.993 6.83542 21.799
      vertex 21.5953 5.00675 31.8
    endloop
  endfacet
  facet normal 0.816224 0.539947 0.205515
    outer loop
      vertex 3.47939 7.78447 16.3286
      vertex 3.37832 8.1351 15.8088
      vertex 3.14673 7.37936 18.7142
    endloop
  endfacet
  facet normal 0.317912 -0.910937 -0.262916
    outer loop
      vertex 7.89849 23.3618 24.8045
      vertex 8.45954 21.5385 31.8
      vertex 7.75194 21.2916 31.8
    endloop
  endfacet
  facet normal -0.996975 0.0134954 -0.0765364
    outer loop
      vertex 22.993 9.95365 22.5681
      vertex 22.3585 15.4315 31.8
      vertex 22.993 16.6323 23.7457
    endloop
  endfacet
  facet normal -0.996975 0.0134954 -0.0765364
    outer loop
      vertex 22.993 9.95365 22.5681
      vertex 22.2588 8.07191 31.8
      vertex 22.3585 15.4315 31.8
    endloop
  endfacet
  facet normal 0.996973 -0.00832319 0.0773073
    outer loop
      vertex 3.14673 10.5726 19.058
      vertex 3.37832 8.1351 15.8088
      vertex 3.5826 9.79172 13.3528
    endloop
  endfacet
  facet normal 0.996973 -0.00832319 0.0773073
    outer loop
      vertex 3.7596 11.2272 11.2246
      vertex 3.14673 10.5726 19.058
      vertex 3.5826 9.79172 13.3528
    endloop
  endfacet
  facet normal 0.996973 -0.00832319 0.0773073
    outer loop
      vertex 3.8095 11.8267 10.6457
      vertex 3.14673 10.5726 19.058
      vertex 3.7596 11.2272 11.2246
    endloop
  endfacet
  facet normal 0.996973 -0.00832319 0.0773073
    outer loop
      vertex 3.14673 10.5726 19.058
      vertex 3.14673 7.37936 18.7142
      vertex 3.37832 8.1351 15.8088
    endloop
  endfacet
  facet normal 1 -1.36482e-16 -2.40654e-17
    outer loop
      vertex 3.14673 9.95365 22.5681
      vertex 3.14673 7.37936 18.7142
      vertex 3.14673 10.5726 19.058
    endloop
  endfacet
  facet normal 1 -1.93467e-16 -3.41134e-17
    outer loop
      vertex 3.14673 17.2512 20.2356
      vertex 3.14673 9.95365 22.5681
      vertex 3.14673 10.5726 19.058
    endloop
  endfacet
  facet normal 1 -1.36482e-16 -2.40654e-17
    outer loop
      vertex 3.14673 20.3694 21.0047
      vertex 3.14673 16.6323 23.7457
      vertex 3.14673 17.2512 20.2356
    endloop
  endfacet
  facet normal 1 -1.36482e-16 -2.40654e-17
    outer loop
      vertex 3.14673 19.8255 24.0895
      vertex 3.14673 16.6323 23.7457
      vertex 3.14673 20.3694 21.0047
    endloop
  endfacet
  facet normal 1 -1.93467e-16 -3.41134e-17
    outer loop
      vertex 3.14673 16.6323 23.7457
      vertex 3.14673 9.95365 22.5681
      vertex 3.14673 17.2512 20.2356
    endloop
  endfacet
  facet normal 1 -1.36482e-16 -2.40654e-17
    outer loop
      vertex 3.14673 9.95365 22.5681
      vertex 3.14673 6.83542 21.799
      vertex 3.14673 7.37936 18.7142
    endloop
  endfacet
  facet normal -0.323804 -0.93175 -0.164293
    outer loop
      vertex 21.178 22.9232 21.5038
      vertex 21.178 22.3959 24.4939
      vertex 18.2413 23.937 21.5423
    endloop
  endfacet
  facet normal -0.814366 -0.542667 -0.205718
    outer loop
      vertex 20.5975 20.4974 31.8
      vertex 21.178 22.3959 24.4939
      vertex 22.993 19.8255 24.0895
    endloop
  endfacet
  facet normal -0.814366 -0.542667 -0.205718
    outer loop
      vertex 21.9178 18.5161 31.8
      vertex 20.5975 20.4974 31.8
      vertex 22.993 19.8255 24.0895
    endloop
  endfacet
  facet normal -1 0 0
    outer loop
      vertex 22.993 6.83542 21.799
      vertex 22.993 10.5726 19.058
      vertex 22.993 7.37936 18.7142
    endloop
  endfacet
  facet normal -0.820136 0.563476 0.099356
    outer loop
      vertex 22.1965 6.01992 19.8489
      vertex 22.993 6.83542 21.799
      vertex 22.993 7.37936 18.7142
    endloop
  endfacet
  facet normal -0.820136 0.563476 0.099356
    outer loop
      vertex 22.1965 6.01992 19.8489
      vertex 21.9369 5.34939 21.5086
      vertex 22.993 6.83542 21.799
    endloop
  endfacet
  facet normal -0.317912 -0.945924 -0.0644986
    outer loop
      vertex 17.5164 24.8146 12.244
      vertex 18.1997 24.6071 11.9195
      vertex 18.4364 24.5324 11.8483
    endloop
  endfacet
  facet normal -0.317912 -0.945924 -0.0644986
    outer loop
      vertex 18.2413 23.937 21.5423
      vertex 17.5164 24.8146 12.244
      vertex 18.4364 24.5324 11.8483
    endloop
  endfacet
  facet normal -0.820136 0.563476 0.099356
    outer loop
      vertex 22.993 7.37936 18.7142
      vertex 22.3949 6.53224 18.5809
      vertex 22.1965 6.01992 19.8489
    endloop
  endfacet
  facet normal -0.814366 0.5803 -0.00770875
    outer loop
      vertex 20.8224 3.84375 25.9037
      vertex 21.5953 5.00675 31.8
      vertex 22.993 6.83542 21.799
    endloop
  endfacet
  facet normal -0.814366 0.5803 -0.00770875
    outer loop
      vertex 21.9369 5.34939 21.5086
      vertex 20.9827 4.05293 24.7174
      vertex 22.993 6.83542 21.799
    endloop
  endfacet
  facet normal -0.814366 0.5803 -0.00770875
    outer loop
      vertex 20.9827 4.05293 24.7174
      vertex 20.8224 3.84375 25.9037
      vertex 22.993 6.83542 21.799
    endloop
  endfacet
  facet normal -0.814366 0.5803 -0.00770875
    outer loop
      vertex 20.8224 3.84375 25.9037
      vertex 20.3669 3.28287 31.8
      vertex 21.5953 5.00675 31.8
    endloop
  endfacet
  facet normal -0.996973 0.0186194 -0.0754918
    outer loop
      vertex 22.993 6.83542 21.799
      vertex 22.2588 8.07191 31.8
      vertex 22.993 9.95365 22.5681
    endloop
  endfacet
  facet normal -0.996973 0.0186194 -0.0754918
    outer loop
      vertex 22.993 6.83542 21.799
      vertex 22.218 5.88664 31.8
      vertex 22.2588 8.07191 31.8
    endloop
  endfacet
  facet normal -0.816224 -0.539947 -0.205515
    outer loop
      vertex 22.993 19.8255 24.0895
      vertex 22.3784 17.8198 31.8
      vertex 21.9178 18.5161 31.8
    endloop
  endfacet
  facet normal -1 -1.84247e-16 1.04492e-15
    outer loop
      vertex 22.993 10.5726 19.058
      vertex 22.993 19.8255 24.0895
      vertex 22.993 17.2512 20.2356
    endloop
  endfacet
  facet normal -1 2.20488e-16 3.00615e-16
    outer loop
      vertex 22.993 10.5726 19.058
      vertex 22.993 6.83542 21.799
      vertex 22.993 19.8255 24.0895
    endloop
  endfacet
  facet normal -0.996973 -0.00832319 0.0773073
    outer loop
      vertex 22.993 10.5726 19.058
      vertex 22.3801 11.2272 11.2246
      vertex 22.6534 9.01142 14.5096
    endloop
  endfacet
  facet normal -0.996973 -0.00832319 0.0773073
    outer loop
      vertex 22.7614 8.1351 15.8088
      vertex 22.993 10.5726 19.058
      vertex 22.6534 9.01142 14.5096
    endloop
  endfacet
  facet normal -0.996973 -0.00832319 0.0773073
    outer loop
      vertex 22.993 7.37936 18.7142
      vertex 22.993 10.5726 19.058
      vertex 22.7614 8.1351 15.8088
    endloop
  endfacet
  facet normal -0.996973 -0.00832319 0.0773073
    outer loop
      vertex 22.993 10.5726 19.058
      vertex 22.3302 11.8267 10.6457
      vertex 22.3801 11.2272 11.2246
    endloop
  endfacet
  facet normal 0.326391 -0.943032 -0.0644917
    outer loop
      vertex 4.96174 22.9232 21.5038
      vertex 5.75426 23.8991 11.2445
      vertex 7.70339 24.5324 11.8483
    endloop
  endfacet
  facet normal 0.326391 -0.943032 -0.0644917
    outer loop
      vertex 7.89849 23.937 21.5423
      vertex 4.96174 22.9232 21.5038
      vertex 7.70339 24.5324 11.8483
    endloop
  endfacet
  facet normal -0.820136 -0.563476 -0.099356
    outer loop
      vertex 22.993 20.3694 21.0047
      vertex 22.993 19.8255 24.0895
      vertex 21.178 22.3959 24.4939
    endloop
  endfacet
  facet normal -0.996975 -0.0134954 0.0765364
    outer loop
      vertex 21.9932 16.1391 7.01563
      vertex 21.9979 15.6171 6.98529
      vertex 22.3302 11.8267 10.6457
    endloop
  endfacet
  facet normal -0.996975 -0.0134954 0.0765364
    outer loop
      vertex 22.993 10.5726 19.058
      vertex 22.993 17.2512 20.2356
      vertex 22.3302 11.8267 10.6457
    endloop
  endfacet
  facet normal -0.996975 -0.0134954 0.0765364
    outer loop
      vertex 22.993 17.2512 20.2356
      vertex 22.0349 19.707 8.18736
      vertex 22.3302 11.8267 10.6457
    endloop
  endfacet
  facet normal -0.996975 -0.0134954 0.0765364
    outer loop
      vertex 22.0349 19.707 8.18736
      vertex 22.0235 19.3382 7.97381
      vertex 22.3302 11.8267 10.6457
    endloop
  endfacet
  facet normal -0.996975 -0.0134954 0.0765364
    outer loop
      vertex 22.0235 19.3382 7.97381
      vertex 21.9932 16.1391 7.01563
      vertex 22.3302 11.8267 10.6457
    endloop
  endfacet
  facet normal 0.996973 0.0186194 -0.0754918
    outer loop
      vertex 3.14673 6.83542 21.799
      vertex 3.14673 9.95365 22.5681
      vertex 3.88092 8.07191 31.8
    endloop
  endfacet
  facet normal 0.996973 0.0186194 -0.0754918
    outer loop
      vertex 3.92173 5.88664 31.8
      vertex 3.14673 6.83542 21.799
      vertex 3.88092 8.07191 31.8
    endloop
  endfacet
  facet normal 0.814366 0.542667 0.205718
    outer loop
      vertex 3.14673 7.37936 18.7142
      vertex 3.74489 6.53224 18.5809
      vertex 3.72849 6.93097 17.594
    endloop
  endfacet
  facet normal 0.814366 0.542667 0.205718
    outer loop
      vertex 3.47939 7.78447 16.3286
      vertex 3.14673 7.37936 18.7142
      vertex 3.72849 6.93097 17.594
    endloop
  endfacet
  facet normal 0.326391 0.943032 0.0644917
    outer loop
      vertex 5.77287 3.28287 31.8
      vertex 7.15624 2.80408 31.8
      vertex 5.31738 3.84375 25.9037
    endloop
  endfacet
  facet normal -1 2.42826e-15 -1.22203e-14
    outer loop
      vertex 22.993 6.83542 21.799
      vertex 22.993 16.6323 23.7457
      vertex 22.993 19.8255 24.0895
    endloop
  endfacet
  facet normal -1 0 0
    outer loop
      vertex 22.993 6.83542 21.799
      vertex 22.993 9.95365 22.5681
      vertex 22.993 16.6323 23.7457
    endloop
  endfacet
  facet normal -0.996973 0.00832319 -0.0773073
    outer loop
      vertex 22.993 16.6323 23.7457
      vertex 22.3784 17.8198 31.8
      vertex 22.993 19.8255 24.0895
    endloop
  endfacet
  facet normal -0.996973 0.00832319 -0.0773073
    outer loop
      vertex 22.993 16.6323 23.7457
      vertex 22.3585 15.4315 31.8
      vertex 22.3784 17.8198 31.8
    endloop
  endfacet
  facet normal -0.996973 -0.0186194 0.0754918
    outer loop
      vertex 22.0797 21.4876 9.2185
      vertex 22.993 17.2512 20.2356
      vertex 22.993 20.3694 21.0047
    endloop
  endfacet
  facet normal -0.996973 -0.0186194 0.0754918
    outer loop
      vertex 22.0797 21.4876 9.2185
      vertex 22.0349 19.707 8.18736
      vertex 22.993 17.2512 20.2356
    endloop
  endfacet
  facet normal -0.816224 -0.577674 0.00844845
    outer loop
      vertex 21.431 22.4131 9.82797
      vertex 21.568 22.2167 9.64072
      vertex 22.0225 21.569 9.26566
    endloop
  endfacet
  facet normal -0.816224 -0.577674 0.00844845
    outer loop
      vertex 22.0797 21.4876 9.2185
      vertex 22.993 20.3694 21.0047
      vertex 22.0225 21.569 9.26566
    endloop
  endfacet
  facet normal -0.816224 -0.577674 0.00844845
    outer loop
      vertex 22.993 20.3694 21.0047
      vertex 21.431 22.4131 9.82797
      vertex 22.0225 21.569 9.26566
    endloop
  endfacet
  facet normal -0.814366 0.542667 0.205718
    outer loop
      vertex 22.4113 6.93097 17.594
      vertex 22.993 7.37936 18.7142
      vertex 22.6604 7.78447 16.3286
    endloop
  endfacet
  facet normal -0.814366 0.542667 0.205718
    outer loop
      vertex 22.4113 6.93097 17.594
      vertex 22.3949 6.53224 18.5809
      vertex 22.993 7.37936 18.7142
    endloop
  endfacet
  facet normal -0.816224 0.539947 0.205515
    outer loop
      vertex 22.993 7.37936 18.7142
      vertex 22.7614 8.1351 15.8088
      vertex 22.6604 7.78447 16.3286
    endloop
  endfacet
  facet normal 0.317912 -0.945924 -0.0644986
    outer loop
      vertex 7.70339 24.5324 11.8483
      vertex 7.94008 24.6071 11.9195
      vertex 8.62332 24.8146 12.244
    endloop
  endfacet
  facet normal 0.317912 -0.945924 -0.0644986
    outer loop
      vertex 7.89849 23.937 21.5423
      vertex 7.70339 24.5324 11.8483
      vertex 8.62332 24.8146 12.244
    endloop
  endfacet
  facet normal -3.84965e-16 -0.995575 -0.0939671
    outer loop
      vertex 7.89849 23.937 21.5423
      vertex 8.62332 24.8146 12.244
      vertex 17.5164 24.8146 12.244
    endloop
  endfacet
  facet normal -3.41977e-16 -0.995575 -0.0939671
    outer loop
      vertex 18.2413 23.937 21.5423
      vertex 7.89849 23.937 21.5423
      vertex 17.5164 24.8146 12.244
    endloop
  endfacet
  facet normal 0.820136 -0.563476 -0.099356
    outer loop
      vertex 3.14673 19.8255 24.0895
      vertex 3.14673 20.3694 21.0047
      vertex 4.96174 22.9232 21.5038
    endloop
  endfacet
  facet normal 0.820136 -0.563476 -0.099356
    outer loop
      vertex 4.96174 22.3959 24.4939
      vertex 3.14673 19.8255 24.0895
      vertex 4.96174 22.9232 21.5038
    endloop
  endfacet
  facet normal 0.814366 -0.5803 0.00770875
    outer loop
      vertex 3.14673 20.3694 21.0047
      vertex 4.70878 22.4131 9.82797
      vertex 5.75426 23.8991 11.2445
    endloop
  endfacet
  facet normal 0.814366 -0.5803 0.00770875
    outer loop
      vertex 4.96174 22.9232 21.5038
      vertex 3.14673 20.3694 21.0047
      vertex 5.75426 23.8991 11.2445
    endloop
  endfacet
  facet normal -0.326391 -0.908218 -0.261934
    outer loop
      vertex 18.2413 23.3618 24.8045
      vertex 21.178 22.3959 24.4939
      vertex 20.5975 20.4974 31.8
    endloop
  endfacet
  facet normal -0.326391 -0.908218 -0.261934
    outer loop
      vertex 18.3878 21.2916 31.8
      vertex 18.2413 23.3618 24.8045
      vertex 20.5975 20.4974 31.8
    endloop
  endfacet
  facet normal -0.326391 -0.943032 -0.0644917
    outer loop
      vertex 21.178 22.9232 21.5038
      vertex 18.4364 24.5324 11.8483
      vertex 20.3855 23.8991 11.2445
    endloop
  endfacet
  facet normal -0.326391 -0.943032 -0.0644917
    outer loop
      vertex 21.178 22.9232 21.5038
      vertex 18.2413 23.937 21.5423
      vertex 18.4364 24.5324 11.8483
    endloop
  endfacet
  facet normal 0.996975 0.0134954 -0.0765364
    outer loop
      vertex 3.14673 9.95365 22.5681
      vertex 3.14673 16.6323 23.7457
      vertex 3.7813 15.4315 31.8
    endloop
  endfacet
  facet normal 0.996975 0.0134954 -0.0765364
    outer loop
      vertex 3.88092 8.07191 31.8
      vertex 3.14673 9.95365 22.5681
      vertex 3.7813 15.4315 31.8
    endloop
  endfacet
  facet normal -0.326391 0.943032 0.0644917
    outer loop
      vertex 20.3669 3.28287 31.8
      vertex 20.8224 3.84375 25.9037
      vertex 18.9835 2.80408 31.8
    endloop
  endfacet
  facet normal 0.820136 0.563476 0.099356
    outer loop
      vertex 3.94326 6.01992 19.8489
      vertex 3.74489 6.53224 18.5809
      vertex 3.14673 7.37936 18.7142
    endloop
  endfacet
  facet normal -1 -2.72212e-16 1.10367e-15
    outer loop
      vertex 22.993 17.2512 20.2356
      vertex 22.993 19.8255 24.0895
      vertex 22.993 20.3694 21.0047
    endloop
  endfacet
  facet normal 0.816224 -0.539947 -0.205515
    outer loop
      vertex 4.22195 18.5161 31.8
      vertex 3.76136 17.8198 31.8
      vertex 3.14673 19.8255 24.0895
    endloop
  endfacet
  facet normal 0.814366 -0.542667 -0.205718
    outer loop
      vertex 3.14673 19.8255 24.0895
      vertex 4.96174 22.3959 24.4939
      vertex 5.54225 20.4974 31.8
    endloop
  endfacet
  facet normal 0.814366 -0.542667 -0.205718
    outer loop
      vertex 4.22195 18.5161 31.8
      vertex 3.14673 19.8255 24.0895
      vertex 5.54225 20.4974 31.8
    endloop
  endfacet
  facet normal 0.326391 -0.908218 -0.261934
    outer loop
      vertex 5.54225 20.4974 31.8
      vertex 7.89849 23.3618 24.8045
      vertex 7.75194 21.2916 31.8
    endloop
  endfacet
  facet normal 0.326391 -0.908218 -0.261934
    outer loop
      vertex 5.54225 20.4974 31.8
      vertex 4.96174 22.3959 24.4939
      vertex 7.89849 23.3618 24.8045
    endloop
  endfacet
  facet normal 0.816224 -0.577674 0.00844845
    outer loop
      vertex 4.70878 22.4131 9.82797
      vertex 4.06007 21.4876 9.2185
      vertex 4.5717 22.2167 9.64072
    endloop
  endfacet
  facet normal 0.816224 -0.577674 0.00844845
    outer loop
      vertex 4.70878 22.4131 9.82797
      vertex 3.14673 20.3694 21.0047
      vertex 4.06007 21.4876 9.2185
    endloop
  endfacet
  facet normal 0.323804 -0.93175 -0.164293
    outer loop
      vertex 4.96174 22.9232 21.5038
      vertex 7.89849 23.937 21.5423
      vertex 4.96174 22.3959 24.4939
    endloop
  endfacet
  facet normal 0.323804 -0.93175 -0.164293
    outer loop
      vertex 7.89849 23.937 21.5423
      vertex 7.89849 23.3618 24.8045
      vertex 4.96174 22.3959 24.4939
    endloop
  endfacet
  facet normal -0.323804 -0.93175 -0.164293
    outer loop
      vertex 21.178 22.3959 24.4939
      vertex 18.2413 23.3618 24.8045
      vertex 18.2413 23.937 21.5423
    endloop
  endfacet
  facet normal -3.38279e-16 -0.984808 -0.173648
    outer loop
      vertex 7.89849 23.3618 24.8045
      vertex 18.2413 23.937 21.5423
      vertex 18.2413 23.3618 24.8045
    endloop
  endfacet
  facet normal -3.37014e-16 -0.984808 -0.173648
    outer loop
      vertex 7.89849 23.3618 24.8045
      vertex 7.89849 23.937 21.5423
      vertex 18.2413 23.937 21.5423
    endloop
  endfacet
  facet normal -0.820136 -0.563476 -0.099356
    outer loop
      vertex 22.993 20.3694 21.0047
      vertex 21.178 22.3959 24.4939
      vertex 21.178 22.9232 21.5038
    endloop
  endfacet
  facet normal -0.814366 -0.5803 0.00770875
    outer loop
      vertex 20.3855 23.8991 11.2445
      vertex 21.431 22.4131 9.82797
      vertex 22.993 20.3694 21.0047
    endloop
  endfacet
  facet normal -0.814366 -0.5803 0.00770875
    outer loop
      vertex 21.178 22.9232 21.5038
      vertex 20.3855 23.8991 11.2445
      vertex 22.993 20.3694 21.0047
    endloop
  endfacet
  facet normal 0.820136 0.563476 0.099356
    outer loop
      vertex 3.14673 6.83542 21.799
      vertex 4.20289 5.34939 21.5086
      vertex 3.94326 6.01992 19.8489
    endloop
  endfacet
  facet normal 0.820136 0.563476 0.099356
    outer loop
      vertex 3.14673 7.37936 18.7142
      vertex 3.14673 6.83542 21.799
      vertex 3.94326 6.01992 19.8489
    endloop
  endfacet
  facet normal 0.814366 0.5803 -0.00770875
    outer loop
      vertex 5.31738 3.84375 25.9037
      vertex 4.54447 5.00675 31.8
      vertex 5.77287 3.28287 31.8
    endloop
  endfacet
  facet normal 0.814366 0.5803 -0.00770875
    outer loop
      vertex 5.31738 3.84375 25.9037
      vertex 3.14673 6.83542 21.799
      vertex 4.54447 5.00675 31.8
    endloop
  endfacet
  facet normal 0.814366 0.5803 -0.00770875
    outer loop
      vertex 5.1571 4.05293 24.7174
      vertex 3.14673 6.83542 21.799
      vertex 5.31738 3.84375 25.9037
    endloop
  endfacet
  facet normal 0.814366 0.5803 -0.00770875
    outer loop
      vertex 4.20289 5.34939 21.5086
      vertex 3.14673 6.83542 21.799
      vertex 5.1571 4.05293 24.7174
    endloop
  endfacet
  facet normal 0.816224 0.577674 -0.00844845
    outer loop
      vertex 3.92173 5.88664 31.8
      vertex 4.54447 5.00675 31.8
      vertex 3.14673 6.83542 21.799
    endloop
  endfacet
  facet normal -0.317912 -0.910937 -0.262916
    outer loop
      vertex 18.2413 23.3618 24.8045
      vertex 18.3878 21.2916 31.8
      vertex 17.6802 21.5385 31.8
    endloop
  endfacet
  facet normal -3.32393e-16 -0.967673 -0.252207
    outer loop
      vertex 7.89849 23.3618 24.8045
      vertex 18.2413 23.3618 24.8045
      vertex 17.6802 21.5385 31.8
    endloop
  endfacet
  facet normal -3.72843e-16 -0.967673 -0.252207
    outer loop
      vertex 8.45954 21.5385 31.8
      vertex 7.89849 23.3618 24.8045
      vertex 17.6802 21.5385 31.8
    endloop
  endfacet
  facet normal 0.996973 0.00832319 -0.0773073
    outer loop
      vertex 3.14673 16.6323 23.7457
      vertex 3.14673 19.8255 24.0895
      vertex 3.76136 17.8198 31.8
    endloop
  endfacet
  facet normal 0.996973 0.00832319 -0.0773073
    outer loop
      vertex 3.7813 15.4315 31.8
      vertex 3.14673 16.6323 23.7457
      vertex 3.76136 17.8198 31.8
    endloop
  endfacet
  facet normal 0.996973 -0.0186194 0.0754918
    outer loop
      vertex 3.14673 17.2512 20.2356
      vertex 4.10489 19.707 8.18736
      vertex 4.09792 19.9842 8.34788
    endloop
  endfacet
  facet normal 0.996973 -0.0186194 0.0754918
    outer loop
      vertex 4.06007 21.4876 9.2185
      vertex 3.14673 17.2512 20.2356
      vertex 4.09792 19.9842 8.34788
    endloop
  endfacet
  facet normal 0.996973 -0.0186194 0.0754918
    outer loop
      vertex 3.14673 20.3694 21.0047
      vertex 3.14673 17.2512 20.2356
      vertex 4.06007 21.4876 9.2185
    endloop
  endfacet
  facet normal 0.996975 -0.0134954 0.0765364
    outer loop
      vertex 4.14655 16.1391 7.01563
      vertex 3.8095 11.8267 10.6457
      vertex 4.14181 15.6171 6.98529
    endloop
  endfacet
  facet normal 0.996975 -0.0134954 0.0765364
    outer loop
      vertex 4.14655 16.1391 7.01563
      vertex 4.1163 19.3382 7.97381
      vertex 3.8095 11.8267 10.6457
    endloop
  endfacet
  facet normal 0.996975 -0.0134954 0.0765364
    outer loop
      vertex 4.1163 19.3382 7.97381
      vertex 4.10489 19.707 8.18736
      vertex 3.8095 11.8267 10.6457
    endloop
  endfacet
  facet normal 0.996975 -0.0134954 0.0765364
    outer loop
      vertex 4.10489 19.707 8.18736
      vertex 3.14673 17.2512 20.2356
      vertex 3.8095 11.8267 10.6457
    endloop
  endfacet
  facet normal 0.996975 -0.0134954 0.0765364
    outer loop
      vertex 3.14673 17.2512 20.2356
      vertex 3.14673 10.5726 19.058
      vertex 3.8095 11.8267 10.6457
    endloop
  endfacet
  facet normal 3.30772e-16 0.829038 0.559193
    outer loop
      vertex 3.5826 9.79172 13.3528
      vertex 22.6534 9.01142 14.5096
      vertex 22.3801 11.2272 11.2246
    endloop
  endfacet
  facet normal 3.69699e-16 0.829038 0.559193
    outer loop
      vertex 3.7596 11.2272 11.2246
      vertex 3.5826 9.79172 13.3528
      vertex 22.3801 11.2272 11.2246
    endloop
  endfacet
  facet normal 5.17685e-16 0.984808 0.173648
    outer loop
      vertex 18.9835 2.80408 31.8
      vertex 5.31738 3.84375 25.9037
      vertex 7.15624 2.80408 31.8
    endloop
  endfacet
  facet normal 4.78378e-16 0.984808 0.173648
    outer loop
      vertex 18.9835 2.80408 31.8
      vertex 20.8224 3.84375 25.9037
      vertex 5.31738 3.84375 25.9037
    endloop
  endfacet
  facet normal 4.78961e-16 0.984808 0.173648
    outer loop
      vertex 20.8224 3.84375 25.9037
      vertex 5.1571 4.05293 24.7174
      vertex 5.31738 3.84375 25.9037
    endloop
  endfacet
  facet normal 5.36416e-16 0.984808 0.173648
    outer loop
      vertex 20.9827 4.05293 24.7174
      vertex 5.1571 4.05293 24.7174
      vertex 20.8224 3.84375 25.9037
    endloop
  endfacet
  facet normal 3.33699e-16 0.694658 0.71934
    outer loop
      vertex 3.7596 11.2272 11.2246
      vertex 22.3801 11.2272 11.2246
      vertex 22.3302 11.8267 10.6457
    endloop
  endfacet
  facet normal 3.27635e-16 0.694658 0.71934
    outer loop
      vertex 21.9979 15.6171 6.98529
      vertex 3.8095 11.8267 10.6457
      vertex 22.3302 11.8267 10.6457
    endloop
  endfacet
  facet normal 3.12204e-16 0.694658 0.71934
    outer loop
      vertex 4.14181 15.6171 6.98529
      vertex 3.8095 11.8267 10.6457
      vertex 21.9979 15.6171 6.98529
    endloop
  endfacet
  facet normal 3.40231e-16 0.694658 0.71934
    outer loop
      vertex 3.8095 11.8267 10.6457
      vertex 3.7596 11.2272 11.2246
      vertex 22.3302 11.8267 10.6457
    endloop
  endfacet
  facet normal 4.70637e-15 0.927184 0.374607
    outer loop
      vertex 3.72849 6.93097 17.594
      vertex 3.74489 6.53224 18.5809
      vertex 3.94326 6.01992 19.8489
    endloop
  endfacet
  facet normal 4.82518e-16 0.927184 0.374607
    outer loop
      vertex 4.20289 5.34939 21.5086
      vertex 22.1965 6.01992 19.8489
      vertex 3.94326 6.01992 19.8489
    endloop
  endfacet
  facet normal 5.52424e-16 0.927184 0.374607
    outer loop
      vertex 5.1571 4.05293 24.7174
      vertex 20.9827 4.05293 24.7174
      vertex 4.20289 5.34939 21.5086
    endloop
  endfacet
  facet normal 4.63086e-16 0.927184 0.374607
    outer loop
      vertex 20.9827 4.05293 24.7174
      vertex 21.9369 5.34939 21.5086
      vertex 4.20289 5.34939 21.5086
    endloop
  endfacet
  facet normal 4.64366e-16 0.927184 0.374607
    outer loop
      vertex 21.9369 5.34939 21.5086
      vertex 22.1965 6.01992 19.8489
      vertex 4.20289 5.34939 21.5086
    endloop
  endfacet
  facet normal 4.85795e-16 0.927184 0.374607
    outer loop
      vertex 22.1965 6.01992 19.8489
      vertex 22.4113 6.93097 17.594
      vertex 3.94326 6.01992 19.8489
    endloop
  endfacet
  facet normal -3.52978e-15 0.927184 0.374607
    outer loop
      vertex 22.3949 6.53224 18.5809
      vertex 22.4113 6.93097 17.594
      vertex 22.1965 6.01992 19.8489
    endloop
  endfacet
  facet normal 4.84861e-16 0.927184 0.374607
    outer loop
      vertex 22.4113 6.93097 17.594
      vertex 3.72849 6.93097 17.594
      vertex 3.94326 6.01992 19.8489
    endloop
  endfacet
  facet normal -1.68906e-15 0.829038 0.559193
    outer loop
      vertex 3.5826 9.79172 13.3528
      vertex 3.47939 7.78447 16.3286
      vertex 3.72849 6.93097 17.594
    endloop
  endfacet
  facet normal 4.33536e-16 0.829038 0.559193
    outer loop
      vertex 22.4113 6.93097 17.594
      vertex 22.6534 9.01142 14.5096
      vertex 3.72849 6.93097 17.594
    endloop
  endfacet
  facet normal -2.39086e-15 0.829038 0.559193
    outer loop
      vertex 22.6604 7.78447 16.3286
      vertex 22.6534 9.01142 14.5096
      vertex 22.4113 6.93097 17.594
    endloop
  endfacet
  facet normal -4.90965e-16 0.829038 0.559193
    outer loop
      vertex 22.7614 8.1351 15.8088
      vertex 22.6534 9.01142 14.5096
      vertex 22.6604 7.78447 16.3286
    endloop
  endfacet
  facet normal 3.87713e-16 0.829038 0.559193
    outer loop
      vertex 22.6534 9.01142 14.5096
      vertex 3.5826 9.79172 13.3528
      vertex 3.72849 6.93097 17.594
    endloop
  endfacet
  facet normal 1.24661e-14 0.829038 0.559193
    outer loop
      vertex 3.5826 9.79172 13.3528
      vertex 3.37832 8.1351 15.8088
      vertex 3.47939 7.78447 16.3286
    endloop
  endfacet
  facet normal -1 0 0
    outer loop
      vertex 0 0 31.8
      vertex 0 29.7 0
      vertex 0 0 0
    endloop
  endfacet
  facet normal -1 0 0
    outer loop
      vertex 0 0 31.8
      vertex 0 29.7 31.8
      vertex 0 29.7 0
    endloop
  endfacet
  facet normal 0 -1 0
    outer loop
      vertex 31.8 0 0
      vertex 0 0 31.8
      vertex 0 0 0
    endloop
  endfacet
  facet normal 0 -1 0
    outer loop
      vertex 31.8 0 0
      vertex 31.8 0 31.8
      vertex 0 0 31.8
    endloop
  endfacet
  facet normal 0 0 -1
    outer loop
      vertex 0 29.7 0
      vertex 31.8 0 0
      vertex 0 0 0
    endloop
  endfacet
  facet normal 0 0 -1
    outer loop
      vertex 0 29.7 0
      vertex 31.8 29.7 0
      vertex 31.8 0 0
    endloop
  endfacet
  facet normal 0 1 0
    outer loop
      vertex 0 29.7 31.8
      vertex 31.8 29.7 0
      vertex 0 29.7 0
    endloop
  endfacet
  facet normal -0 1 0
    outer loop
      vertex 0 29.7 31.8
      vertex 31.8 29.7 31.8
      vertex 31.8 29.7 0
    endloop
  endfacet
  facet normal 0 0 1
    outer loop
      vertex 31.8 29.7 31.8
      vertex 0 29.7 31.8
      vertex 17.6802 21.5385 31.8
    endloop
  endfacet
  facet normal 0 0 1
    outer loop
      vertex 3.7813 15.4315 31.8
      vertex 0 29.7 31.8
      vertex 0 0 31.8
    endloop
  endfacet
  facet normal 0 0 1
    outer loop
      vertex 3.76136 17.8198 31.8
      vertex 0 29.7 31.8
      vertex 3.7813 15.4315 31.8
    endloop
  endfacet
  facet normal 0 0 1
    outer loop
      vertex 4.22195 18.5161 31.8
      vertex 0 29.7 31.8
      vertex 3.76136 17.8198 31.8
    endloop
  endfacet
  facet normal 0 0 1
    outer loop
      vertex 5.54225 20.4974 31.8
      vertex 0 29.7 31.8
      vertex 4.22195 18.5161 31.8
    endloop
  endfacet
  facet normal 0 0 1
    outer loop
      vertex 0 29.7 31.8
      vertex 7.75194 21.2916 31.8
      vertex 8.45954 21.5385 31.8
    endloop
  endfacet
  facet normal 0 0 1
    outer loop
      vertex 7.75194 21.2916 31.8
      vertex 0 29.7 31.8
      vertex 5.54225 20.4974 31.8
    endloop
  endfacet
  facet normal 0 0 1
    outer loop
      vertex 0 29.7 31.8
      vertex 8.45954 21.5385 31.8
      vertex 17.6802 21.5385 31.8
    endloop
  endfacet
  facet normal 0 0 1
    outer loop
      vertex 31.8 29.7 31.8
      vertex 17.6802 21.5385 31.8
      vertex 18.3878 21.2916 31.8
    endloop
  endfacet
  facet normal 0 0 1
    outer loop
      vertex 31.8 29.7 31.8
      vertex 18.3878 21.2916 31.8
      vertex 20.5975 20.4974 31.8
    endloop
  endfacet
  facet normal 0 0 1
    outer loop
      vertex 31.8 29.7 31.8
      vertex 20.5975 20.4974 31.8
      vertex 21.9178 18.5161 31.8
    endloop
  endfacet
  facet normal 0 0 1
    outer loop
      vertex 31.8 29.7 31.8
      vertex 21.9178 18.5161 31.8
      vertex 22.3784 17.8198 31.8
    endloop
  endfacet
  facet normal 0 0 1
    outer loop
      vertex 31.8 29.7 31.8
      vertex 22.3585 15.4315 31.8
      vertex 31.8 0 31.8
    endloop
  endfacet
  facet normal -0 0 1
    outer loop
      vertex 22.3784 17.8198 31.8
      vertex 22.3585 15.4315 31.8
      vertex 31.8 29.7 31.8
    endloop
  endfacet
  facet normal 0 0 1
    outer loop
      vertex 22.3585 15.4315 31.8
      vertex 22.2588 8.07191 31.8
      vertex 31.8 0 31.8
    endloop
  endfacet
  facet normal 0 0 1
    outer loop
      vertex 22.2588 8.07191 31.8
      vertex 22.218 5.88664 31.8
      vertex 31.8 0 31.8
    endloop
  endfacet
  facet normal 0 0 1
    outer loop
      vertex 22.218 5.88664 31.8
      vertex 21.5953 5.00675 31.8
      vertex 31.8 0 31.8
    endloop
  endfacet
  facet normal 0 0 1
    outer loop
      vertex 21.5953 5.00675 31.8
      vertex 20.3669 3.28287 31.8
      vertex 31.8 0 31.8
    endloop
  endfacet
  facet normal 0 0 1
    outer loop
      vertex 3.7813 15.4315 31.8
      vertex 0 0 31.8
      vertex 3.88092 8.07191 31.8
    endloop
  endfacet
  facet normal 0 0 1
    outer loop
      vertex 20.3669 3.28287 31.8
      vertex 18.9835 2.80408 31.8
      vertex 31.8 0 31.8
    endloop
  endfacet
  facet normal 0 0 1
    outer loop
      vertex 18.9835 2.80408 31.8
      vertex 0 0 31.8
      vertex 31.8 0 31.8
    endloop
  endfacet
  facet normal 0 0 1
    outer loop
      vertex 7.15624 2.80408 31.8
      vertex 0 0 31.8
      vertex 18.9835 2.80408 31.8
    endloop
  endfacet
  facet normal 0 0 1
    outer loop
      vertex 5.77287 3.28287 31.8
      vertex 0 0 31.8
      vertex 7.15624 2.80408 31.8
    endloop
  endfacet
  facet normal 0 0 1
    outer loop
      vertex 4.54447 5.00675 31.8
      vertex 0 0 31.8
      vertex 5.77287 3.28287 31.8
    endloop
  endfacet
  facet normal 0 0 1
    outer loop
      vertex 3.92173 5.88664 31.8
      vertex 0 0 31.8
      vertex 4.54447 5.00675 31.8
    endloop
  endfacet
  facet normal 0 0 1
    outer loop
      vertex 3.88092 8.07191 31.8
      vertex 0 0 31.8
      vertex 3.92173 5.88664 31.8
    endloop
  endfacet
  facet normal 1 0 0
    outer loop
      vertex 31.8 29.7 0
      vertex 31.8 0 31.8
      vertex 31.8 0 0
    endloop
  endfacet
  facet normal 1 0 -0
    outer loop
      vertex 31.8 29.7 0
      vertex 31.8 29.7 31.8
      vertex 31.8 0 31.8
    endloop
  endfacet
endsolid OpenSCAD_Model
