solid OpenSCAD_Model
  facet normal 0 0 -1
    outer loop
      vertex 0 0 0
      vertex 0 28.8 0
      vertex 30 0 0
    endloop
  endfacet
  facet normal 0 0 -1
    outer loop
      vertex 30 0 0
      vertex 0 28.8 0
      vertex 30 28.8 0
    endloop
  endfacet
  facet normal -1 0 0
    outer loop
      vertex 0 0 0
      vertex 0 0 30
      vertex 0 28.8 0
    endloop
  endfacet
  facet normal -1 0 0
    outer loop
      vertex 0 28.8 0
      vertex 0 0 30
      vertex 0 28.8 30
    endloop
  endfacet
  facet normal 0 -1 0
    outer loop
      vertex 0 0 30
      vertex 0 0 0
      vertex 30 0 0
    endloop
  endfacet
  facet normal 0 -1 0
    outer loop
      vertex 30 0 30
      vertex 0 0 30
      vertex 30 0 0
    endloop
  endfacet
  facet normal 1 0 0
    outer loop
      vertex 30 0 30
      vertex 30 0 0
      vertex 30 28.8 0
    endloop
  endfacet
  facet normal 1 0 0
    outer loop
      vertex 30 28.8 30
      vertex 30 0 30
      vertex 30 28.8 0
    endloop
  endfacet
  facet normal 0 1 0
    outer loop
      vertex 0 28.8 0
      vertex 0 28.8 30
      vertex 30 28.8 0
    endloop
  endfacet
  facet normal 0 1 0
    outer loop
      vertex 30 28.8 0
      vertex 0 28.8 30
      vertex 30 28.8 30
    endloop
  endfacet
  facet normal 0 0 1
    outer loop
      vertex 17.7842 2.43692 30
      vertex 0 0 30
      vertex 30 0 30
    endloop
  endfacet
  facet normal 0 0 1
    outer loop
      vertex 0 28.8 30
      vertex 0 0 30
      vertex 4.58766 15.3116 30
    endloop
  endfacet
  facet normal 0 0 1
    outer loop
      vertex 21.8536 5.27651 30
      vertex 20.5635 3.41719 30
      vertex 30 0 30
    endloop
  endfacet
  facet normal 0 0 1
    outer loop
      vertex 0 28.8 30
      vertex 4.58766 15.3116 30
      vertex 4.56592 17.8723 30
    endloop
  endfacet
  facet normal 0 0 1
    outer loop
      vertex 17.7842 2.43692 30
      vertex 9.25325 2.43692 30
      vertex 0 0 30
    endloop
  endfacet
  facet normal 0 0 1
    outer loop
      vertex 0 28.8 30
      vertex 4.56592 17.8723 30
      vertex 4.87183 18.3481 30
    endloop
  endfacet
  facet normal 0 0 1
    outer loop
      vertex 8.99577 21.4809 30
      vertex 18.0417 21.4809 30
      vertex 30 28.8 30
    endloop
  endfacet
  facet normal 0 0 1
    outer loop
      vertex 0 28.8 30
      vertex 4.87183 18.3481 30
      vertex 6.24561 20.4692 30
    endloop
  endfacet
  facet normal 0 0 1
    outer loop
      vertex 22.3112 5.94053 30
      vertex 21.8536 5.27651 30
      vertex 30 0 30
    endloop
  endfacet
  facet normal 0 0 1
    outer loop
      vertex 8.99577 21.4809 30
      vertex 0 28.8 30
      vertex 8.54716 21.3199 30
    endloop
  endfacet
  facet normal 0 0 1
    outer loop
      vertex 30 28.8 30
      vertex 0 28.8 30
      vertex 8.99577 21.4809 30
    endloop
  endfacet
  facet normal 0 0 1
    outer loop
      vertex 22.3549 8.29425 30
      vertex 22.3112 5.94053 30
      vertex 30 0 30
    endloop
  endfacet
  facet normal 0 0 1
    outer loop
      vertex 30 28.8 30
      vertex 18.0417 21.4809 30
      vertex 18.4903 21.3199 30
    endloop
  endfacet
  facet normal 0 0 1
    outer loop
      vertex 30 28.8 30
      vertex 18.4903 21.3199 30
      vertex 20.7919 20.4692 30
    endloop
  endfacet
  facet normal 0 0 1
    outer loop
      vertex 22.4498 15.3116 30
      vertex 22.3549 8.29425 30
      vertex 30 0 30
    endloop
  endfacet
  facet normal 0 0 1
    outer loop
      vertex 30 28.8 30
      vertex 20.7919 20.4692 30
      vertex 22.1657 18.3481 30
    endloop
  endfacet
  facet normal 0 0 1
    outer loop
      vertex 30 28.8 30
      vertex 22.4716 17.8723 30
      vertex 30 0 30
    endloop
  endfacet
  facet normal 0 0 1
    outer loop
      vertex 30 28.8 30
      vertex 22.1657 18.3481 30
      vertex 22.4716 17.8723 30
    endloop
  endfacet
  facet normal 0 0 1
    outer loop
      vertex 20.5635 3.41719 30
      vertex 18.5557 2.70328 30
      vertex 30 0 30
    endloop
  endfacet
  facet normal 0 0 1
    outer loop
      vertex 18.5557 2.70328 30
      vertex 17.7842 2.43692 30
      vertex 30 0 30
    endloop
  endfacet
  facet normal 0 0 1
    outer loop
      vertex 8.48181 2.70328 30
      vertex 0 0 30
      vertex 9.25325 2.43692 30
    endloop
  endfacet
  facet normal 0 0 1
    outer loop
      vertex 6.47404 3.41719 30
      vertex 0 0 30
      vertex 8.48181 2.70328 30
    endloop
  endfacet
  facet normal 0 0 1
    outer loop
      vertex 5.1839 5.27651 30
      vertex 0 0 30
      vertex 6.47404 3.41719 30
    endloop
  endfacet
  facet normal 0 0 1
    outer loop
      vertex 4.72628 5.94053 30
      vertex 0 0 30
      vertex 5.1839 5.27651 30
    endloop
  endfacet
  facet normal 0 0 1
    outer loop
      vertex 4.68265 8.29425 30
      vertex 0 0 30
      vertex 4.72628 5.94053 30
    endloop
  endfacet
  facet normal 0 0 1
    outer loop
      vertex 4.58766 15.3116 30
      vertex 0 0 30
      vertex 4.68265 8.29425 30
    endloop
  endfacet
  facet normal 0 0 1
    outer loop
      vertex 6.24561 20.4692 30
      vertex 8.54716 21.3199 30
      vertex 0 28.8 30
    endloop
  endfacet
  facet normal 0 0 1
    outer loop
      vertex 22.4716 17.8723 30
      vertex 22.4498 15.3116 30
      vertex 30 0 30
    endloop
  endfacet
  facet normal 0.996975 0.0134954 -0.0765364
    outer loop
      vertex 4.15729 16.1219 24.5368
      vertex 4.58766 15.3116 30
      vertex 4.68265 8.29425 30
    endloop
  endfacet
  facet normal 0.996975 0.0134954 -0.0765364
    outer loop
      vertex 4.15729 9.64565 23.3949
      vertex 4.15729 16.1219 24.5368
      vertex 4.68265 8.29425 30
    endloop
  endfacet
  facet normal 0.996973 0.00846283 -0.0772827
    outer loop
      vertex 4.15729 19.2174 24.8758
      vertex 4.56592 17.8723 30
      vertex 4.58766 15.3116 30
    endloop
  endfacet
  facet normal 0.996973 0.00846283 -0.0772827
    outer loop
      vertex 4.15729 16.1219 24.5368
      vertex 4.15729 19.2174 24.8758
      vertex 4.58766 15.3116 30
    endloop
  endfacet
  facet normal 0.996973 0.0184798 -0.0755165
    outer loop
      vertex 4.15729 9.64565 23.3949
      vertex 4.68265 8.29425 30
      vertex 4.72628 5.94053 30
    endloop
  endfacet
  facet normal 0.996973 0.0184798 -0.0755165
    outer loop
      vertex 4.15729 6.62092 22.6547
      vertex 4.15729 9.64565 23.3949
      vertex 4.72628 5.94053 30
    endloop
  endfacet
  facet normal 0.823347 0.567427 -0.011218
    outer loop
      vertex 4.72628 5.94053 30
      vertex 5.1839 5.27651 30
      vertex 4.15729 6.62092 22.6547
    endloop
  endfacet
  facet normal 0.821543 0.570051 -0.0104856
    outer loop
      vertex 5.1839 5.27651 30
      vertex 6.47404 3.41719 30
      vertex 5.86957 4.14435 22.172
    endloop
  endfacet
  facet normal 0.821543 0.570051 -0.0104856
    outer loop
      vertex 4.15729 6.62092 22.6547
      vertex 5.1839 5.27651 30
      vertex 5.86957 4.14435 22.172
    endloop
  endfacet
  facet normal 0.33439 0.940424 0.061537
    outer loop
      vertex 8.48181 2.70328 30
      vertex 8.58896 3.01376 24.6729
      vertex 6.47404 3.41719 30
    endloop
  endfacet
  facet normal 0.33439 0.940424 0.061537
    outer loop
      vertex 6.47404 3.41719 30
      vertex 8.58896 3.01376 24.6729
      vertex 6.20279 4.02619 22.1671
    endloop
  endfacet
  facet normal 0.33439 0.940424 0.061537
    outer loop
      vertex 6.47404 3.41719 30
      vertex 6.20279 4.02619 22.1671
      vertex 5.86957 4.14435 22.172
    endloop
  endfacet
  facet normal 0.325753 0.94345 0.0615397
    outer loop
      vertex 8.85965 2.9023 24.9488
      vertex 8.58896 3.01376 24.6729
      vertex 9.25325 2.43692 30
    endloop
  endfacet
  facet normal 0.325753 0.94345 0.0615397
    outer loop
      vertex 9.25325 2.43692 30
      vertex 8.58896 3.01376 24.6729
      vertex 8.48181 2.70328 30
    endloop
  endfacet
  facet normal 2.21108e-16 0.995783 0.0917446
    outer loop
      vertex 17.7842 2.43692 30
      vertex 18.1779 2.9023 24.9488
      vertex 9.25325 2.43692 30
    endloop
  endfacet
  facet normal 2.21108e-16 0.995783 0.0917446
    outer loop
      vertex 9.25325 2.43692 30
      vertex 18.1779 2.9023 24.9488
      vertex 8.85965 2.9023 24.9488
    endloop
  endfacet
  facet normal -0.325753 0.94345 0.0615397
    outer loop
      vertex 18.4485 3.01376 24.6729
      vertex 18.1779 2.9023 24.9488
      vertex 18.5557 2.70328 30
    endloop
  endfacet
  facet normal -0.325753 0.94345 0.0615397
    outer loop
      vertex 18.5557 2.70328 30
      vertex 18.1779 2.9023 24.9488
      vertex 17.7842 2.43692 30
    endloop
  endfacet
  facet normal -0.33439 0.940424 0.061537
    outer loop
      vertex 20.5635 3.41719 30
      vertex 21.1679 4.14435 22.172
      vertex 18.5557 2.70328 30
    endloop
  endfacet
  facet normal -0.33439 0.940424 0.061537
    outer loop
      vertex 18.5557 2.70328 30
      vertex 21.1679 4.14435 22.172
      vertex 20.8347 4.02619 22.1671
    endloop
  endfacet
  facet normal -0.33439 0.940424 0.061537
    outer loop
      vertex 18.5557 2.70328 30
      vertex 20.8347 4.02619 22.1671
      vertex 18.4485 3.01376 24.6729
    endloop
  endfacet
  facet normal -0.821543 0.570051 -0.0104856
    outer loop
      vertex 22.8802 6.62092 22.6547
      vertex 21.1679 4.14435 22.172
      vertex 21.8536 5.27651 30
    endloop
  endfacet
  facet normal -0.821543 0.570051 -0.0104856
    outer loop
      vertex 21.8536 5.27651 30
      vertex 21.1679 4.14435 22.172
      vertex 20.5635 3.41719 30
    endloop
  endfacet
  facet normal -0.823347 0.567427 -0.011218
    outer loop
      vertex 22.3112 5.94053 30
      vertex 22.8802 6.62092 22.6547
      vertex 21.8536 5.27651 30
    endloop
  endfacet
  facet normal -0.996973 0.0184798 -0.0755165
    outer loop
      vertex 22.8802 9.64565 23.3949
      vertex 22.8802 6.62092 22.6547
      vertex 22.3549 8.29425 30
    endloop
  endfacet
  facet normal -0.996973 0.0184798 -0.0755165
    outer loop
      vertex 22.3549 8.29425 30
      vertex 22.8802 6.62092 22.6547
      vertex 22.3112 5.94053 30
    endloop
  endfacet
  facet normal -0.996975 0.0134954 -0.0765364
    outer loop
      vertex 22.8802 16.1219 24.5368
      vertex 22.8802 9.64565 23.3949
      vertex 22.4498 15.3116 30
    endloop
  endfacet
  facet normal -0.996975 0.0134954 -0.0765364
    outer loop
      vertex 22.4498 15.3116 30
      vertex 22.8802 9.64565 23.3949
      vertex 22.3549 8.29425 30
    endloop
  endfacet
  facet normal -0.996973 0.00846283 -0.0772827
    outer loop
      vertex 22.8802 19.2174 24.8758
      vertex 22.8802 16.1219 24.5368
      vertex 22.4716 17.8723 30
    endloop
  endfacet
  facet normal -0.996973 0.00846283 -0.0772827
    outer loop
      vertex 22.4716 17.8723 30
      vertex 22.8802 16.1219 24.5368
      vertex 22.4498 15.3116 30
    endloop
  endfacet
  facet normal -0.823347 -0.52937 -0.204613
    outer loop
      vertex 22.8802 19.2174 24.8758
      vertex 22.4716 17.8723 30
      vertex 22.1657 18.3481 30
    endloop
  endfacet
  facet normal -0.821543 -0.532086 -0.204822
    outer loop
      vertex 22.8802 19.2174 24.8758
      vertex 22.1657 18.3481 30
      vertex 21.1679 21.7097 25.2692
    endloop
  endfacet
  facet normal -0.821543 -0.532086 -0.204822
    outer loop
      vertex 21.1679 21.7097 25.2692
      vertex 22.1657 18.3481 30
      vertex 20.7919 20.4692 30
    endloop
  endfacet
  facet normal -0.33439 -0.904756 -0.263818
    outer loop
      vertex 21.1679 21.7097 25.2692
      vertex 20.7919 20.4692 30
      vertex 18.4903 21.3199 30
    endloop
  endfacet
  facet normal -0.33439 -0.904756 -0.263818
    outer loop
      vertex 18.3974 22.6469 25.5668
      vertex 21.1679 21.7097 25.2692
      vertex 18.4903 21.3199 30
    endloop
  endfacet
  facet normal -0.325753 -0.907601 -0.264851
    outer loop
      vertex 18.3974 22.6469 25.5668
      vertex 18.4903 21.3199 30
      vertex 18.0417 21.4809 30
    endloop
  endfacet
  facet normal -2.14741e-16 -0.967108 -0.254366
    outer loop
      vertex 18.3974 22.6469 25.5668
      vertex 18.0417 21.4809 30
      vertex 8.99577 21.4809 30
    endloop
  endfacet
  facet normal -2.14741e-16 -0.967108 -0.254366
    outer loop
      vertex 8.64009 22.6469 25.5668
      vertex 18.3974 22.6469 25.5668
      vertex 8.99577 21.4809 30
    endloop
  endfacet
  facet normal 0.325753 -0.907601 -0.264851
    outer loop
      vertex 8.64009 22.6469 25.5668
      vertex 8.99577 21.4809 30
      vertex 8.54716 21.3199 30
    endloop
  endfacet
  facet normal 0.33439 -0.904756 -0.263818
    outer loop
      vertex 8.64009 22.6469 25.5668
      vertex 8.54716 21.3199 30
      vertex 6.24561 20.4692 30
    endloop
  endfacet
  facet normal 0.33439 -0.904756 -0.263818
    outer loop
      vertex 5.86957 21.7097 25.2692
      vertex 8.64009 22.6469 25.5668
      vertex 6.24561 20.4692 30
    endloop
  endfacet
  facet normal 0.821543 -0.532086 -0.204822
    outer loop
      vertex 5.86957 21.7097 25.2692
      vertex 6.24561 20.4692 30
      vertex 4.87183 18.3481 30
    endloop
  endfacet
  facet normal 0.821543 -0.532086 -0.204822
    outer loop
      vertex 4.15729 19.2174 24.8758
      vertex 5.86957 21.7097 25.2692
      vertex 4.87183 18.3481 30
    endloop
  endfacet
  facet normal 0.823347 -0.52937 -0.204613
    outer loop
      vertex 4.87183 18.3481 30
      vertex 4.56592 17.8723 30
      vertex 4.15729 19.2174 24.8758
    endloop
  endfacet
  facet normal 1 -1.64003e-16 -2.89182e-17
    outer loop
      vertex 4.15729 7.13407 19.7445
      vertex 4.15729 10.2295 20.0835
      vertex 4.15729 16.7058 21.2254
    endloop
  endfacet
  facet normal 1 -1.64003e-16 -2.89182e-17
    outer loop
      vertex 4.15729 19.2174 24.8758
      vertex 4.15729 7.13407 19.7445
      vertex 4.15729 19.7305 21.9656
    endloop
  endfacet
  facet normal 1 -1.64003e-16 -2.89182e-17
    outer loop
      vertex 4.15729 19.7305 21.9656
      vertex 4.15729 7.13407 19.7445
      vertex 4.15729 16.7058 21.2254
    endloop
  endfacet
  facet normal 1 -1.64003e-16 -2.89182e-17
    outer loop
      vertex 4.15729 16.1219 24.5368
      vertex 4.15729 7.13407 19.7445
      vertex 4.15729 19.2174 24.8758
    endloop
  endfacet
  facet normal 1 -1.64003e-16 -2.89182e-17
    outer loop
      vertex 4.15729 9.64565 23.3949
      vertex 4.15729 7.13407 19.7445
      vertex 4.15729 16.1219 24.5368
    endloop
  endfacet
  facet normal 1 -1.64003e-16 -2.89182e-17
    outer loop
      vertex 4.15729 6.62092 22.6547
      vertex 4.15729 7.13407 19.7445
      vertex 4.15729 9.64565 23.3949
    endloop
  endfacet
  facet normal 0.827415 -0.553058 -0.0975191
    outer loop
      vertex 4.15729 19.7305 21.9656
      vertex 5.86957 22.2071 22.4483
      vertex 5.86957 21.7097 25.2692
    endloop
  endfacet
  facet normal 0.827415 -0.553058 -0.0975191
    outer loop
      vertex 4.15729 19.2174 24.8758
      vertex 4.15729 19.7305 21.9656
      vertex 5.86957 21.7097 25.2692
    endloop
  endfacet
  facet normal 0.827415 0.553058 0.0975191
    outer loop
      vertex 5.86957 4.14435 22.172
      vertex 4.15729 7.13407 19.7445
      vertex 4.15729 6.62092 22.6547
    endloop
  endfacet
  facet normal 0.827415 0.553058 0.0975191
    outer loop
      vertex 5.86957 4.14435 22.172
      vertex 5.86957 4.2374 21.6443
      vertex 5.53234 5.13261 19.4286
    endloop
  endfacet
  facet normal 0.827415 0.553058 0.0975191
    outer loop
      vertex 4.15729 7.13407 19.7445
      vertex 5.86957 4.14435 22.172
      vertex 5.53234 5.13261 19.4286
    endloop
  endfacet
  facet normal 0.331849 0.929001 0.163808
    outer loop
      vertex 6.06541 4.11327 21.9515
      vertex 5.86957 4.2374 21.6443
      vertex 5.86957 4.14435 22.172
    endloop
  endfacet
  facet normal 0.331849 0.929001 0.163808
    outer loop
      vertex 6.20279 4.02619 22.1671
      vertex 6.06541 4.11327 21.9515
      vertex 5.86957 4.14435 22.172
    endloop
  endfacet
  facet normal 4.83882e-16 0.927184 0.374607
    outer loop
      vertex 5.86957 4.2374 21.6443
      vertex 6.06541 4.11327 21.9515
      vertex 5.53234 5.13261 19.4286
    endloop
  endfacet
  facet normal 4.83882e-16 0.927184 0.374607
    outer loop
      vertex 5.53234 5.13261 19.4286
      vertex 6.06541 4.11327 21.9515
      vertex 6.20279 4.02619 22.1671
    endloop
  endfacet
  facet normal 4.83882e-16 0.927184 0.374607
    outer loop
      vertex 5.53234 5.13261 19.4286
      vertex 6.20279 4.02619 22.1671
      vertex 8.58896 3.01376 24.6729
    endloop
  endfacet
  facet normal 4.83882e-16 0.927184 0.374607
    outer loop
      vertex 5.53234 5.13261 19.4286
      vertex 8.58896 3.01376 24.6729
      vertex 8.85965 2.9023 24.9488
    endloop
  endfacet
  facet normal 4.83882e-16 0.927184 0.374607
    outer loop
      vertex 5.53234 5.13261 19.4286
      vertex 8.85965 2.9023 24.9488
      vertex 18.1779 2.9023 24.9488
    endloop
  endfacet
  facet normal 4.83882e-16 0.927184 0.374607
    outer loop
      vertex 5.53234 5.13261 19.4286
      vertex 18.1779 2.9023 24.9488
      vertex 18.4485 3.01376 24.6729
    endloop
  endfacet
  facet normal 4.83882e-16 0.927184 0.374607
    outer loop
      vertex 5.53234 5.13261 19.4286
      vertex 18.4485 3.01376 24.6729
      vertex 20.8347 4.02619 22.1671
    endloop
  endfacet
  facet normal 4.83882e-16 0.927184 0.374607
    outer loop
      vertex 5.53234 5.13261 19.4286
      vertex 20.8347 4.02619 22.1671
      vertex 21.1679 4.2374 21.6443
    endloop
  endfacet
  facet normal 4.83882e-16 0.927184 0.374607
    outer loop
      vertex 5.53234 5.13261 19.4286
      vertex 21.1679 4.2374 21.6443
      vertex 21.5052 5.13261 19.4286
    endloop
  endfacet
  facet normal 4.83882e-16 0.927184 0.374607
    outer loop
      vertex 5.53234 5.13261 19.4286
      vertex 21.5052 5.13261 19.4286
      vertex 21.5245 5.76317 17.8679
    endloop
  endfacet
  facet normal 4.83882e-16 0.927184 0.374607
    outer loop
      vertex 5.53234 5.13261 19.4286
      vertex 21.5245 5.76317 17.8679
      vertex 5.51305 5.76317 17.8679
    endloop
  endfacet
  facet normal -0.331849 0.929001 0.163808
    outer loop
      vertex 21.1679 4.14435 22.172
      vertex 21.1679 4.2374 21.6443
      vertex 20.8347 4.02619 22.1671
    endloop
  endfacet
  facet normal -0.827415 0.553058 0.0975191
    outer loop
      vertex 22.8802 7.13407 19.7445
      vertex 21.5052 5.13261 19.4286
      vertex 21.1679 4.14435 22.172
    endloop
  endfacet
  facet normal -0.827415 0.553058 0.0975191
    outer loop
      vertex 21.1679 4.14435 22.172
      vertex 21.5052 5.13261 19.4286
      vertex 21.1679 4.2374 21.6443
    endloop
  endfacet
  facet normal -0.827415 0.553058 0.0975191
    outer loop
      vertex 22.8802 6.62092 22.6547
      vertex 22.8802 7.13407 19.7445
      vertex 21.1679 4.14435 22.172
    endloop
  endfacet
  facet normal -1 1.64003e-16 2.89182e-17
    outer loop
      vertex 22.8802 16.7058 21.2254
      vertex 22.8802 10.2295 20.0835
      vertex 22.8802 19.2174 24.8758
    endloop
  endfacet
  facet normal -1 1.64003e-16 2.89182e-17
    outer loop
      vertex 22.8802 19.2174 24.8758
      vertex 22.8802 10.2295 20.0835
      vertex 22.8802 6.62092 22.6547
    endloop
  endfacet
  facet normal -1 1.35649e-15 -6.73399e-15
    outer loop
      vertex 22.8802 19.2174 24.8758
      vertex 22.8802 6.62092 22.6547
      vertex 22.8802 16.1219 24.5368
    endloop
  endfacet
  facet normal -1 1.35649e-15 -6.73399e-15
    outer loop
      vertex 22.8802 16.1219 24.5368
      vertex 22.8802 6.62092 22.6547
      vertex 22.8802 9.64565 23.3949
    endloop
  endfacet
  facet normal -1 5.55716e-16 5.78667e-16
    outer loop
      vertex 22.8802 6.62092 22.6547
      vertex 22.8802 10.2295 20.0835
      vertex 22.8802 7.13407 19.7445
    endloop
  endfacet
  facet normal -1 -3.92111e-16 4.1154e-16
    outer loop
      vertex 22.8802 16.7058 21.2254
      vertex 22.8802 19.2174 24.8758
      vertex 22.8802 19.7305 21.9656
    endloop
  endfacet
  facet normal -0.827415 -0.553058 -0.0975191
    outer loop
      vertex 22.8802 19.7305 21.9656
      vertex 22.8802 19.2174 24.8758
      vertex 21.1679 21.7097 25.2692
    endloop
  endfacet
  facet normal -0.827415 -0.553058 -0.0975191
    outer loop
      vertex 22.8802 19.7305 21.9656
      vertex 21.1679 21.7097 25.2692
      vertex 21.1679 22.2071 22.4483
    endloop
  endfacet
  facet normal -0.331849 -0.929001 -0.163808
    outer loop
      vertex 21.1679 22.2071 22.4483
      vertex 21.1679 21.7097 25.2692
      vertex 18.3974 23.1895 22.4892
    endloop
  endfacet
  facet normal -0.331849 -0.929001 -0.163808
    outer loop
      vertex 21.1679 21.7097 25.2692
      vertex 18.3974 22.6469 25.5668
      vertex 18.3974 23.1895 22.4892
    endloop
  endfacet
  facet normal -2.18671e-16 -0.984808 -0.173648
    outer loop
      vertex 18.3974 23.1895 22.4892
      vertex 18.3974 22.6469 25.5668
      vertex 8.64009 22.6469 25.5668
    endloop
  endfacet
  facet normal -2.18671e-16 -0.984808 -0.173648
    outer loop
      vertex 8.64009 23.1895 22.4892
      vertex 18.3974 23.1895 22.4892
      vertex 8.64009 22.6469 25.5668
    endloop
  endfacet
  facet normal 0.331849 -0.929001 -0.163808
    outer loop
      vertex 8.64009 23.1895 22.4892
      vertex 8.64009 22.6469 25.5668
      vertex 5.86957 21.7097 25.2692
    endloop
  endfacet
  facet normal 0.331849 -0.929001 -0.163808
    outer loop
      vertex 5.86957 22.2071 22.4483
      vertex 8.64009 23.1895 22.4892
      vertex 5.86957 21.7097 25.2692
    endloop
  endfacet
  facet normal 0.996973 -0.00846283 0.0772827
    outer loop
      vertex 4.66762 8.81388 13.345
      vertex 4.82133 10.0594 11.4985
      vertex 4.96176 11.7442 9.87143
    endloop
  endfacet
  facet normal 0.996973 -0.00846283 0.0772827
    outer loop
      vertex 4.15729 7.13407 19.7445
      vertex 4.66762 8.81388 13.345
      vertex 4.15729 10.2295 20.0835
    endloop
  endfacet
  facet normal 0.996973 -0.00846283 0.0772827
    outer loop
      vertex 4.15729 10.2295 20.0835
      vertex 4.66762 8.81388 13.345
      vertex 4.96176 11.7442 9.87143
    endloop
  endfacet
  facet normal 0.823347 0.52937 0.204613
    outer loop
      vertex 4.88554 8.02002 14.522
      vertex 4.73268 8.57686 13.6964
      vertex 4.66762 8.81388 13.345
    endloop
  endfacet
  facet normal 0.823347 0.52937 0.204613
    outer loop
      vertex 4.15729 7.13407 19.7445
      vertex 4.88554 8.02002 14.522
      vertex 4.66762 8.81388 13.345
    endloop
  endfacet
  facet normal 0.821543 0.532086 0.204822
    outer loop
      vertex 5.53234 5.13261 19.4286
      vertex 5.51305 5.76317 17.8679
      vertex 4.88554 8.02002 14.522
    endloop
  endfacet
  facet normal 0.821543 0.532086 0.204822
    outer loop
      vertex 4.15729 7.13407 19.7445
      vertex 5.53234 5.13261 19.4286
      vertex 4.88554 8.02002 14.522
    endloop
  endfacet
  facet normal 0.821543 -0.570051 0.0104856
    outer loop
      vertex 5.63092 21.6603 11.4219
      vertex 6.61723 23.1065 12.7661
      vertex 5.86957 22.2071 22.4483
    endloop
  endfacet
  facet normal 0.821543 -0.570051 0.0104856
    outer loop
      vertex 4.15729 19.7305 21.9656
      vertex 5.63092 21.6603 11.4219
      vertex 5.86957 22.2071 22.4483
    endloop
  endfacet
  facet normal 0.823347 -0.567427 0.011218
    outer loop
      vertex 5.01893 20.7609 10.8423
      vertex 5.50161 21.4692 11.2442
      vertex 5.63092 21.6603 11.4219
    endloop
  endfacet
  facet normal 0.823347 -0.567427 0.011218
    outer loop
      vertex 4.15729 19.7305 21.9656
      vertex 5.01893 20.7609 10.8423
      vertex 5.63092 21.6603 11.4219
    endloop
  endfacet
  facet normal 0.996973 -0.0184798 0.0755165
    outer loop
      vertex 5.06122 19.031 9.86065
      vertex 5.05464 19.3003 10.0135
      vertex 5.01893 20.7609 10.8423
    endloop
  endfacet
  facet normal 0.996973 -0.0184798 0.0755165
    outer loop
      vertex 4.15729 16.7058 21.2254
      vertex 5.06122 19.031 9.86065
      vertex 4.15729 19.7305 21.9656
    endloop
  endfacet
  facet normal 0.996973 -0.0184798 0.0755165
    outer loop
      vertex 4.15729 19.7305 21.9656
      vertex 5.06122 19.031 9.86065
      vertex 5.01893 20.7609 10.8423
    endloop
  endfacet
  facet normal 0.996975 -0.0134954 0.0765364
    outer loop
      vertex 4.96176 11.7442 9.87143
      vertex 5.0785 13.0758 8.58554
      vertex 5.10052 15.5688 8.73827
    endloop
  endfacet
  facet normal 0.996975 -0.0134954 0.0765364
    outer loop
      vertex 5.06122 19.031 9.86065
      vertex 4.96176 11.7442 9.87143
      vertex 5.07198 18.6728 9.65737
    endloop
  endfacet
  facet normal 0.996975 -0.0134954 0.0765364
    outer loop
      vertex 5.07198 18.6728 9.65737
      vertex 4.96176 11.7442 9.87143
      vertex 5.10052 15.5688 8.73827
    endloop
  endfacet
  facet normal 0.996975 -0.0134954 0.0765364
    outer loop
      vertex 4.15729 16.7058 21.2254
      vertex 4.96176 11.7442 9.87143
      vertex 5.06122 19.031 9.86065
    endloop
  endfacet
  facet normal 0.996975 -0.0134954 0.0765364
    outer loop
      vertex 4.15729 10.2295 20.0835
      vertex 4.96176 11.7442 9.87143
      vertex 4.15729 16.7058 21.2254
    endloop
  endfacet
  facet normal 0.33439 -0.940424 -0.061537
    outer loop
      vertex 6.61723 23.1065 12.7661
      vertex 8.45603 23.7228 13.3389
      vertex 8.64009 23.1895 22.4892
    endloop
  endfacet
  facet normal 0.33439 -0.940424 -0.061537
    outer loop
      vertex 5.86957 22.2071 22.4483
      vertex 6.61723 23.1065 12.7661
      vertex 8.64009 23.1895 22.4892
    endloop
  endfacet
  facet normal 4.43729e-16 0.829038 0.559193
    outer loop
      vertex 5.51305 5.76317 17.8679
      vertex 21.5245 5.76317 17.8679
      vertex 4.88554 8.02002 14.522
    endloop
  endfacet
  facet normal 4.43729e-16 0.829038 0.559193
    outer loop
      vertex 4.88554 8.02002 14.522
      vertex 21.5245 5.76317 17.8679
      vertex 22.1091 7.86589 14.7505
    endloop
  endfacet
  facet normal 4.43729e-16 0.829038 0.559193
    outer loop
      vertex 4.88554 8.02002 14.522
      vertex 22.1091 7.86589 14.7505
      vertex 4.73268 8.57686 13.6964
    endloop
  endfacet
  facet normal -0.821543 0.532086 0.204822
    outer loop
      vertex 22.152 8.02002 14.522
      vertex 22.1091 7.86589 14.7505
      vertex 22.8802 7.13407 19.7445
    endloop
  endfacet
  facet normal -0.821543 0.532086 0.204822
    outer loop
      vertex 22.8802 7.13407 19.7445
      vertex 22.1091 7.86589 14.7505
      vertex 21.5245 5.76317 17.8679
    endloop
  endfacet
  facet normal -0.821543 0.532086 0.204822
    outer loop
      vertex 22.8802 7.13407 19.7445
      vertex 21.5245 5.76317 17.8679
      vertex 21.5052 5.13261 19.4286
    endloop
  endfacet
  facet normal -0.823347 0.52937 0.204613
    outer loop
      vertex 22.8802 7.13407 19.7445
      vertex 22.3699 8.81388 13.345
      vertex 22.152 8.02002 14.522
    endloop
  endfacet
  facet normal -0.996973 -0.00846283 0.0772827
    outer loop
      vertex 22.3699 8.81388 13.345
      vertex 22.8802 7.13407 19.7445
      vertex 22.2162 10.0594 11.4985
    endloop
  endfacet
  facet normal -0.996973 -0.00846283 0.0772827
    outer loop
      vertex 22.2162 10.0594 11.4985
      vertex 22.8802 7.13407 19.7445
      vertex 22.8802 10.2295 20.0835
    endloop
  endfacet
  facet normal -0.996973 -0.00846283 0.0772827
    outer loop
      vertex 22.2162 10.0594 11.4985
      vertex 22.8802 10.2295 20.0835
      vertex 22.0757 11.7442 9.87143
    endloop
  endfacet
  facet normal -0.996975 -0.0134954 0.0765364
    outer loop
      vertex 22.0757 11.7442 9.87143
      vertex 22.8802 10.2295 20.0835
      vertex 21.959 13.0758 8.58554
    endloop
  endfacet
  facet normal -0.996975 -0.0134954 0.0765364
    outer loop
      vertex 21.959 13.0758 8.58554
      vertex 22.8802 10.2295 20.0835
      vertex 22.8802 16.7058 21.2254
    endloop
  endfacet
  facet normal -0.996975 -0.0134954 0.0765364
    outer loop
      vertex 21.959 13.0758 8.58554
      vertex 22.8802 16.7058 21.2254
      vertex 21.9763 19.031 9.86065
    endloop
  endfacet
  facet normal -0.996975 -0.0134954 0.0765364
    outer loop
      vertex 21.959 13.0758 8.58554
      vertex 21.9763 19.031 9.86065
      vertex 21.9655 18.6728 9.65737
    endloop
  endfacet
  facet normal -0.996975 -0.0134954 0.0765364
    outer loop
      vertex 21.959 13.0758 8.58554
      vertex 21.9655 18.6728 9.65737
      vertex 21.937 15.5688 8.73827
    endloop
  endfacet
  facet normal -0.996973 -0.0184798 0.0755165
    outer loop
      vertex 22.8802 19.7305 21.9656
      vertex 22.0186 20.7609 10.8423
      vertex 22.8802 16.7058 21.2254
    endloop
  endfacet
  facet normal -0.996973 -0.0184798 0.0755165
    outer loop
      vertex 22.8802 16.7058 21.2254
      vertex 22.0186 20.7609 10.8423
      vertex 21.9763 19.031 9.86065
    endloop
  endfacet
  facet normal -0.821543 -0.570051 0.0104856
    outer loop
      vertex 22.8802 19.7305 21.9656
      vertex 21.1679 22.2071 22.4483
      vertex 21.4066 21.6603 11.4219
    endloop
  endfacet
  facet normal -0.821543 -0.570051 0.0104856
    outer loop
      vertex 21.4066 21.6603 11.4219
      vertex 21.1679 22.2071 22.4483
      vertex 20.4203 23.1065 12.7661
    endloop
  endfacet
  facet normal -0.823347 -0.567427 0.011218
    outer loop
      vertex 21.9647 20.84 10.8871
      vertex 22.0186 20.7609 10.8423
      vertex 21.5359 21.4692 11.2442
    endloop
  endfacet
  facet normal -0.823347 -0.567427 0.011218
    outer loop
      vertex 21.5359 21.4692 11.2442
      vertex 22.0186 20.7609 10.8423
      vertex 22.8802 19.7305 21.9656
    endloop
  endfacet
  facet normal -0.823347 -0.567427 0.011218
    outer loop
      vertex 21.5359 21.4692 11.2442
      vertex 22.8802 19.7305 21.9656
      vertex 21.4066 21.6603 11.4219
    endloop
  endfacet
  facet normal -0.33439 -0.940424 -0.061537
    outer loop
      vertex 18.5815 23.7228 13.3389
      vertex 20.4203 23.1065 12.7661
      vertex 21.1679 22.2071 22.4483
    endloop
  endfacet
  facet normal -0.33439 -0.940424 -0.061537
    outer loop
      vertex 18.3974 23.1895 22.4892
      vertex 18.5815 23.7228 13.3389
      vertex 21.1679 22.2071 22.4483
    endloop
  endfacet
  facet normal -0.325753 -0.94345 -0.0615397
    outer loop
      vertex 18.3582 23.7955 13.4065
      vertex 18.5815 23.7228 13.3389
      vertex 18.3974 23.1895 22.4892
    endloop
  endfacet
  facet normal -0.325753 -0.94345 -0.0615397
    outer loop
      vertex 17.7136 23.998 13.7139
      vertex 18.3582 23.7955 13.4065
      vertex 18.3974 23.1895 22.4892
    endloop
  endfacet
  facet normal -2.21108e-16 -0.995783 -0.0917446
    outer loop
      vertex 9.32388 23.998 13.7139
      vertex 17.7136 23.998 13.7139
      vertex 18.3974 23.1895 22.4892
    endloop
  endfacet
  facet normal -2.21108e-16 -0.995783 -0.0917446
    outer loop
      vertex 8.64009 23.1895 22.4892
      vertex 9.32388 23.998 13.7139
      vertex 18.3974 23.1895 22.4892
    endloop
  endfacet
  facet normal 0.325753 -0.94345 -0.0615397
    outer loop
      vertex 8.67932 23.7955 13.4065
      vertex 9.32388 23.998 13.7139
      vertex 8.64009 23.1895 22.4892
    endloop
  endfacet
  facet normal 0.325753 -0.94345 -0.0615397
    outer loop
      vertex 8.45603 23.7228 13.3389
      vertex 8.67932 23.7955 13.4065
      vertex 8.64009 23.1895 22.4892
    endloop
  endfacet
  facet normal 3.78817e-16 0.829038 0.559193
    outer loop
      vertex 22.1091 7.86589 14.7505
      vertex 22.152 8.02002 14.522
      vertex 4.73268 8.57686 13.6964
    endloop
  endfacet
  facet normal 3.78817e-16 0.829038 0.559193
    outer loop
      vertex 4.73268 8.57686 13.6964
      vertex 22.152 8.02002 14.522
      vertex 22.3699 8.81388 13.345
    endloop
  endfacet
  facet normal 3.78817e-16 0.829038 0.559193
    outer loop
      vertex 4.73268 8.57686 13.6964
      vertex 22.3699 8.81388 13.345
      vertex 22.2162 10.0594 11.4985
    endloop
  endfacet
  facet normal 3.78817e-16 0.829038 0.559193
    outer loop
      vertex 4.73268 8.57686 13.6964
      vertex 22.2162 10.0594 11.4985
      vertex 4.82133 10.0594 11.4985
    endloop
  endfacet
  facet normal 3.78817e-16 0.829038 0.559193
    outer loop
      vertex 4.73268 8.57686 13.6964
      vertex 4.82133 10.0594 11.4985
      vertex 4.66762 8.81388 13.345
    endloop
  endfacet
  facet normal 3.26697e-16 0.694658 0.71934
    outer loop
      vertex 22.2162 10.0594 11.4985
      vertex 22.0757 11.7442 9.87143
      vertex 21.959 13.0758 8.58554
    endloop
  endfacet
  facet normal 3.26697e-16 0.694658 0.71934
    outer loop
      vertex 4.96176 11.7442 9.87143
      vertex 22.2162 10.0594 11.4985
      vertex 5.0785 13.0758 8.58554
    endloop
  endfacet
  facet normal 3.26697e-16 0.694658 0.71934
    outer loop
      vertex 5.0785 13.0758 8.58554
      vertex 22.2162 10.0594 11.4985
      vertex 21.959 13.0758 8.58554
    endloop
  endfacet
  facet normal 3.26697e-16 0.694658 0.71934
    outer loop
      vertex 4.82133 10.0594 11.4985
      vertex 22.2162 10.0594 11.4985
      vertex 4.96176 11.7442 9.87143
    endloop
  endfacet
  facet normal -2.5675e-16 -0.680814 0.732456
    outer loop
      vertex 21.5359 21.4692 11.2442
      vertex 21.4066 21.6603 11.4219
      vertex 20.4203 23.1065 12.7661
    endloop
  endfacet
  facet normal -2.5675e-16 -0.680814 0.732456
    outer loop
      vertex 18.3582 23.7955 13.4065
      vertex 21.5359 21.4692 11.2442
      vertex 18.5815 23.7228 13.3389
    endloop
  endfacet
  facet normal -2.5675e-16 -0.680814 0.732456
    outer loop
      vertex 18.5815 23.7228 13.3389
      vertex 21.5359 21.4692 11.2442
      vertex 20.4203 23.1065 12.7661
    endloop
  endfacet
  facet normal -2.5675e-16 -0.680814 0.732456
    outer loop
      vertex 8.67932 23.7955 13.4065
      vertex 21.5359 21.4692 11.2442
      vertex 18.3582 23.7955 13.4065
    endloop
  endfacet
  facet normal -2.5675e-16 -0.680814 0.732456
    outer loop
      vertex 8.45603 23.7228 13.3389
      vertex 21.5359 21.4692 11.2442
      vertex 8.67932 23.7955 13.4065
    endloop
  endfacet
  facet normal -2.5675e-16 -0.680814 0.732456
    outer loop
      vertex 6.61723 23.1065 12.7661
      vertex 21.5359 21.4692 11.2442
      vertex 8.45603 23.7228 13.3389
    endloop
  endfacet
  facet normal -2.5675e-16 -0.680814 0.732456
    outer loop
      vertex 5.63092 21.6603 11.4219
      vertex 21.5359 21.4692 11.2442
      vertex 6.61723 23.1065 12.7661
    endloop
  endfacet
  facet normal -2.5675e-16 -0.680814 0.732456
    outer loop
      vertex 5.50161 21.4692 11.2442
      vertex 21.5359 21.4692 11.2442
      vertex 5.63092 21.6603 11.4219
    endloop
  endfacet
  facet normal -1.74688e-16 -0.493527 0.86973
    outer loop
      vertex 5.05464 19.3003 10.0135
      vertex 21.9647 20.84 10.8871
      vertex 21.5359 21.4692 11.2442
    endloop
  endfacet
  facet normal -1.74688e-16 -0.493527 0.86973
    outer loop
      vertex 5.01893 20.7609 10.8423
      vertex 5.05464 19.3003 10.0135
      vertex 5.50161 21.4692 11.2442
    endloop
  endfacet
  facet normal -1.74688e-16 -0.493527 0.86973
    outer loop
      vertex 5.50161 21.4692 11.2442
      vertex 5.05464 19.3003 10.0135
      vertex 21.5359 21.4692 11.2442
    endloop
  endfacet
  facet normal -1.90964e-16 -0.493527 0.86973
    outer loop
      vertex 5.06122 19.031 9.86065
      vertex 5.07198 18.6728 9.65737
      vertex 21.9655 18.6728 9.65737
    endloop
  endfacet
  facet normal -1.90964e-16 -0.493527 0.86973
    outer loop
      vertex 22.0186 20.7609 10.8423
      vertex 5.06122 19.031 9.86065
      vertex 21.9763 19.031 9.86065
    endloop
  endfacet
  facet normal -1.90964e-16 -0.493527 0.86973
    outer loop
      vertex 21.9763 19.031 9.86065
      vertex 5.06122 19.031 9.86065
      vertex 21.9655 18.6728 9.65737
    endloop
  endfacet
  facet normal -1.90964e-16 -0.493527 0.86973
    outer loop
      vertex 21.9647 20.84 10.8871
      vertex 5.06122 19.031 9.86065
      vertex 22.0186 20.7609 10.8423
    endloop
  endfacet
  facet normal -1.90964e-16 -0.493527 0.86973
    outer loop
      vertex 5.05464 19.3003 10.0135
      vertex 5.06122 19.031 9.86065
      vertex 21.9647 20.84 10.8871
    endloop
  endfacet
  facet normal -9.05175e-17 -0.283918 0.958848
    outer loop
      vertex 5.10052 15.5688 8.73827
      vertex 21.937 15.5688 8.73827
      vertex 21.9655 18.6728 9.65737
    endloop
  endfacet
  facet normal -9.05175e-17 -0.283918 0.958848
    outer loop
      vertex 5.07198 18.6728 9.65737
      vertex 5.10052 15.5688 8.73827
      vertex 21.9655 18.6728 9.65737
    endloop
  endfacet
  facet normal 1.3897e-17 -0.0611495 0.998129
    outer loop
      vertex 21.959 13.0758 8.58554
      vertex 21.937 15.5688 8.73827
      vertex 5.10052 15.5688 8.73827
    endloop
  endfacet
  facet normal 1.3897e-17 -0.0611495 0.998129
    outer loop
      vertex 5.0785 13.0758 8.58554
      vertex 21.959 13.0758 8.58554
      vertex 5.10052 15.5688 8.73827
    endloop
  endfacet
  facet normal -3.26664e-16 -0.835042 0.550186
    outer loop
      vertex 18.3582 23.7955 13.4065
      vertex 17.7136 23.998 13.7139
      vertex 9.32388 23.998 13.7139
    endloop
  endfacet
  facet normal -3.26664e-16 -0.835042 0.550186
    outer loop
      vertex 8.67932 23.7955 13.4065
      vertex 18.3582 23.7955 13.4065
      vertex 9.32388 23.998 13.7139
    endloop
  endfacet
endsolid OpenSCAD_Model
