solid OpenSCAD_Model
  facet normal -2.14434e-016 -0.681488 0.731829
    outer loop
      vertex 4.09402 22.2818 10.5722
      vertex 21.5895 22.0848 10.3887
      vertex 21.4472 22.2818 10.5722
    endloop
  endfacet
  facet normal -2.03543e-016 -0.681488 0.731829
    outer loop
      vertex 20.3623 23.7728 11.9606
      vertex 20.2321 23.8137 11.9987
      vertex 21.4472 22.2818 10.5722
    endloop
  endfacet
  facet normal -2.53569e-016 -0.681488 0.731829
    outer loop
      vertex 20.2321 23.8137 11.9987
      vertex 4.39031 22.689 10.9514
      vertex 21.4472 22.2818 10.5722
    endloop
  endfacet
  facet normal -2.156e-016 -0.681488 0.731829
    outer loop
      vertex 4.39031 22.689 10.9514
      vertex 4.09402 22.2818 10.5722
      vertex 21.4472 22.2818 10.5722
    endloop
  endfacet
  facet normal -2.00142e-016 -0.681488 0.731829
    outer loop
      vertex 4.09402 22.2818 10.5722
      vertex 3.95177 22.0848 10.3887
      vertex 21.5895 22.0848 10.3887
    endloop
  endfacet
  facet normal 2.87306e-017 -0.284136 0.958784
    outer loop
      vertex 22.0621 19.2014 8.75008
      vertex 3.51057 16.0005 7.80151
      vertex 22.0307 16.0005 7.80151
    endloop
  endfacet
  facet normal -1.69922e-017 -0.284136 0.958784
    outer loop
      vertex 22.0621 19.2014 8.75008
      vertex 3.47918 19.2014 8.75008
      vertex 3.51057 16.0005 7.80151
    endloop
  endfacet
  facet normal -9.43393e-017 -0.494082 0.869416
    outer loop
      vertex 22.0739 19.5708 8.96
      vertex 3.46734 19.5708 8.96
      vertex 3.47918 19.2014 8.75008
    endloop
  endfacet
  facet normal -1.05811e-016 -0.494082 0.869416
    outer loop
      vertex 22.0621 19.2014 8.75008
      vertex 22.0739 19.5708 8.96
      vertex 3.47918 19.2014 8.75008
    endloop
  endfacet
  facet normal -9.43393e-017 -0.494082 0.869416
    outer loop
      vertex 22.0739 19.5708 8.96
      vertex 22.0811 19.8484 9.1178
      vertex 3.46734 19.5708 8.96
    endloop
  endfacet
  facet normal -7.50714e-017 -0.494082 0.869416
    outer loop
      vertex 22.0811 19.8484 9.1178
      vertex 3.48013 21.436 10.02
      vertex 3.46734 19.5708 8.96
    endloop
  endfacet
  facet normal -2.04812e-014 -0.494082 0.869416
    outer loop
      vertex 3.48013 21.436 10.02
      vertex 3.42083 21.3544 9.97364
      vertex 3.46734 19.5708 8.96
    endloop
  endfacet
  facet normal -1.2819e-015 -0.494082 0.869416
    outer loop
      vertex 21.5895 22.0848 10.3887
      vertex 22.0811 19.8484 9.1178
      vertex 22.1204 21.3544 9.97364
    endloop
  endfacet
  facet normal -1.11481e-016 -0.494082 0.869416
    outer loop
      vertex 21.5895 22.0848 10.3887
      vertex 3.95177 22.0848 10.3887
      vertex 22.0811 19.8484 9.1178
    endloop
  endfacet
  facet normal -3.76562e-017 -0.494082 0.869416
    outer loop
      vertex 3.95177 22.0848 10.3887
      vertex 3.48013 21.436 10.02
      vertex 22.0811 19.8484 9.1178
    endloop
  endfacet
  facet normal -4.27413e-016 -0.835596 0.549344
    outer loop
      vertex 8.15627 24.6919 12.9396
      vertex 18.094 24.4832 12.6221
      vertex 17.385 24.6919 12.9396
    endloop
  endfacet
  facet normal -1.85243e-016 -0.835596 0.549344
    outer loop
      vertex 8.15627 24.6919 12.9396
      vertex 7.44725 24.4832 12.6221
      vertex 18.094 24.4832 12.6221
    endloop
  endfacet
  facet normal -3.23667e-016 -0.681488 0.731829
    outer loop
      vertex 4.39031 22.689 10.9514
      vertex 20.2321 23.8137 11.9987
      vertex 18.3396 24.4083 12.5523
    endloop
  endfacet
  facet normal -6.92007e-016 -0.681488 0.731829
    outer loop
      vertex 18.094 24.4832 12.6221
      vertex 4.39031 22.689 10.9514
      vertex 18.3396 24.4083 12.5523
    endloop
  endfacet
  facet normal -1.05304e-016 -0.681488 0.731829
    outer loop
      vertex 7.44725 24.4832 12.6221
      vertex 4.39031 22.689 10.9514
      vertex 18.094 24.4832 12.6221
    endloop
  endfacet
  facet normal 4.36808e-015 -0.681488 0.731829
    outer loop
      vertex 7.20164 24.4083 12.5523
      vertex 4.39031 22.689 10.9514
      vertex 7.44725 24.4832 12.6221
    endloop
  endfacet
  facet normal 4.80477e-016 -0.681488 0.731829
    outer loop
      vertex 5.17895 23.7728 11.9606
      vertex 4.39031 22.689 10.9514
      vertex 7.20164 24.4083 12.5523
    endloop
  endfacet
  facet normal 1.2006e-016 -0.0609229 0.998142
    outer loop
      vertex 3.49732 14.5943 7.71568
      vertex 22.0439 14.5943 7.71568
      vertex 22.0307 16.0005 7.80151
    endloop
  endfacet
  facet normal 1.20232e-016 -0.0609229 0.998142
    outer loop
      vertex 3.51057 16.0005 7.80151
      vertex 3.49732 14.5943 7.71568
      vertex 22.0307 16.0005 7.80151
    endloop
  endfacet
  facet normal -0.805685 0.592232 -0.0114821
    outer loop
      vertex 22.3413 5.94943 31
      vertex 23.0682 6.76751 22.1841
      vertex 21.7566 5.15406 31
    endloop
  endfacet
  facet normal -0.803762 -0.555315 -0.213522
    outer loop
      vertex 20.6669 20.7242 31
      vertex 21.1847 22.3278 24.8803
      vertex 23.0682 19.7576 24.4746
    endloop
  endfacet
  facet normal -0.803762 -0.555315 -0.213522
    outer loop
      vertex 22.0996 18.6505 31
      vertex 20.6669 20.7242 31
      vertex 23.0682 19.7576 24.4746
    endloop
  endfacet
  facet normal -0.805685 0.552589 0.213345
    outer loop
      vertex 23.0682 7.29776 19.1769
      vertex 22.741 8.309 15.3219
      vertex 22.601 7.83174 16.0294
    endloop
  endfacet
  facet normal 0.315641 -0.911 -0.265423
    outer loop
      vertex 4.87434 20.7242 31
      vertex 7.40409 23.2942 25.1874
      vertex 7.2744 21.5558 31
    endloop
  endfacet
  facet normal 0.315641 -0.911 -0.265423
    outer loop
      vertex 4.87434 20.7242 31
      vertex 4.35652 22.3278 24.8803
      vertex 7.40409 23.2942 25.1874
    endloop
  endfacet
  facet normal -0.810004 -0.577515 -0.101831
    outer loop
      vertex 23.0682 20.2878 21.4674
      vertex 23.0682 19.7576 24.4746
      vertex 21.1847 22.3278 24.8803
    endloop
  endfacet
  facet normal 0.803762 0.594854 -0.0107161
    outer loop
      vertex 4.72559 3.79577 26.1758
      vertex 3.78465 5.15406 31
      vertex 5.12215 3.34684 31
    endloop
  endfacet
  facet normal 0.803762 0.594854 -0.0107161
    outer loop
      vertex 4.72559 3.79577 26.1758
      vertex 2.47302 6.76751 22.1841
      vertex 3.78465 5.15406 31
    endloop
  endfacet
  facet normal 0.803762 0.594854 -0.0107161
    outer loop
      vertex 4.4712 4.10763 24.4072
      vertex 2.47302 6.76751 22.1841
      vertex 4.72559 3.79577 26.1758
    endloop
  endfacet
  facet normal 0.803762 0.594854 -0.0107161
    outer loop
      vertex 3.67739 5.13443 21.8658
      vertex 2.47302 6.76751 22.1841
      vertex 4.4712 4.10763 24.4072
    endloop
  endfacet
  facet normal -0.996575 -0.0143603 0.0814415
    outer loop
      vertex 22.0307 16.0005 7.80151
      vertex 22.0439 14.5943 7.71568
      vertex 22.3001 11.8491 10.3666
    endloop
  endfacet
  facet normal -0.996575 -0.0143603 0.0814415
    outer loop
      vertex 23.0682 10.49 19.5261
      vertex 23.0682 17.1687 20.7037
      vertex 22.3001 11.8491 10.3666
    endloop
  endfacet
  facet normal -0.996575 -0.0143603 0.0814415
    outer loop
      vertex 23.0682 17.1687 20.7037
      vertex 22.0739 19.5708 8.96
      vertex 22.3001 11.8491 10.3666
    endloop
  endfacet
  facet normal -0.996575 -0.0143603 0.0814415
    outer loop
      vertex 22.0739 19.5708 8.96
      vertex 22.0621 19.2014 8.75008
      vertex 22.3001 11.8491 10.3666
    endloop
  endfacet
  facet normal -0.996575 -0.0143603 0.0814415
    outer loop
      vertex 22.0621 19.2014 8.75008
      vertex 22.0307 16.0005 7.80151
      vertex 22.3001 11.8491 10.3666
    endloop
  endfacet
  facet normal -0.996572 -0.00899442 0.0822375
    outer loop
      vertex 23.0682 10.49 19.5261
      vertex 22.3504 11.2819 10.9144
      vertex 22.6415 9.0666 14.1987
    endloop
  endfacet
  facet normal -0.996572 -0.00899442 0.0822375
    outer loop
      vertex 22.741 8.309 15.3219
      vertex 23.0682 10.49 19.5261
      vertex 22.6415 9.0666 14.1987
    endloop
  endfacet
  facet normal -0.996572 -0.00899442 0.0822375
    outer loop
      vertex 23.0682 7.29776 19.1769
      vertex 23.0682 10.49 19.5261
      vertex 22.741 8.309 15.3219
    endloop
  endfacet
  facet normal -0.996572 -0.00899442 0.0822375
    outer loop
      vertex 23.0682 10.49 19.5261
      vertex 22.3001 11.8491 10.3666
      vertex 22.3504 11.2819 10.9144
    endloop
  endfacet
  facet normal -1 9.65087e-016 1.35156e-015
    outer loop
      vertex 23.0682 6.76751 22.1841
      vertex 23.0682 10.49 19.5261
      vertex 23.0682 7.29776 19.1769
    endloop
  endfacet
  facet normal 0.315641 -0.94684 -0.0621645
    outer loop
      vertex 4.35652 22.8418 21.9653
      vertex 5.17895 23.7728 11.9606
      vertex 7.20164 24.4083 12.5523
    endloop
  endfacet
  facet normal 0.315641 -0.94684 -0.0621645
    outer loop
      vertex 7.40409 23.855 22.0073
      vertex 4.35652 22.8418 21.9653
      vertex 7.20164 24.4083 12.5523
    endloop
  endfacet
  facet normal 0.996575 -0.0143603 0.0814415
    outer loop
      vertex 3.51057 16.0005 7.80151
      vertex 3.24113 11.8491 10.3666
      vertex 3.49732 14.5943 7.71568
    endloop
  endfacet
  facet normal 0.996575 -0.0143603 0.0814415
    outer loop
      vertex 3.51057 16.0005 7.80151
      vertex 3.47918 19.2014 8.75008
      vertex 3.24113 11.8491 10.3666
    endloop
  endfacet
  facet normal 0.996575 -0.0143603 0.0814415
    outer loop
      vertex 3.47918 19.2014 8.75008
      vertex 3.46734 19.5708 8.96
      vertex 3.24113 11.8491 10.3666
    endloop
  endfacet
  facet normal 0.996575 -0.0143603 0.0814415
    outer loop
      vertex 3.46734 19.5708 8.96
      vertex 2.47302 17.1687 20.7037
      vertex 3.24113 11.8491 10.3666
    endloop
  endfacet
  facet normal 0.996575 -0.0143603 0.0814415
    outer loop
      vertex 2.47302 17.1687 20.7037
      vertex 2.47302 10.49 19.5261
      vertex 3.24113 11.8491 10.3666
    endloop
  endfacet
  facet normal -0.307381 -0.913545 -0.266368
    outer loop
      vertex 18.1372 23.2942 25.1874
      vertex 18.2668 21.5558 31
      vertex 17.6407 21.7665 31
    endloop
  endfacet
  facet normal 0.803762 0.555315 0.213522
    outer loop
      vertex 2.47302 7.29776 19.1769
      vertex 3.21494 6.28534 19.0172
      vertex 3.19156 6.98567 17.2838
    endloop
  endfacet
  facet normal 0.803762 0.555315 0.213522
    outer loop
      vertex 2.94024 7.83174 16.0294
      vertex 2.47302 7.29776 19.1769
      vertex 3.19156 6.98567 17.2838
    endloop
  endfacet
  facet normal -0.810004 0.577515 0.101831
    outer loop
      vertex 22.0885 5.69342 20.4822
      vertex 23.0682 6.76751 22.1841
      vertex 23.0682 7.29776 19.1769
    endloop
  endfacet
  facet normal -0.810004 0.577515 0.101831
    outer loop
      vertex 22.0885 5.69342 20.4822
      vertex 21.8639 5.13443 21.8658
      vertex 23.0682 6.76751 22.1841
    endloop
  endfacet
  facet normal -0.803762 0.594854 -0.0107161
    outer loop
      vertex 20.8157 3.79577 26.1758
      vertex 21.7566 5.15406 31
      vertex 23.0682 6.76751 22.1841
    endloop
  endfacet
  facet normal -0.803762 0.594854 -0.0107161
    outer loop
      vertex 21.8639 5.13443 21.8658
      vertex 21.0701 4.10763 24.4072
      vertex 23.0682 6.76751 22.1841
    endloop
  endfacet
  facet normal -0.803762 0.594854 -0.0107161
    outer loop
      vertex 21.0701 4.10763 24.4072
      vertex 20.8157 3.79577 26.1758
      vertex 23.0682 6.76751 22.1841
    endloop
  endfacet
  facet normal -0.803762 0.594854 -0.0107161
    outer loop
      vertex 20.8157 3.79577 26.1758
      vertex 20.4191 3.34684 31
      vertex 21.7566 5.15406 31
    endloop
  endfacet
  facet normal -0.996572 0.00899442 -0.0822375
    outer loop
      vertex 23.0682 16.5653 24.1255
      vertex 22.5143 18.0459 31
      vertex 23.0682 19.7576 24.4746
    endloop
  endfacet
  facet normal -0.996572 0.00899442 -0.0822375
    outer loop
      vertex 23.0682 16.5653 24.1255
      vertex 22.4917 15.5453 31
      vertex 22.5143 18.0459 31
    endloop
  endfacet
  facet normal -0.805685 -0.552589 -0.213345
    outer loop
      vertex 23.0682 19.7576 24.4746
      vertex 22.5143 18.0459 31
      vertex 22.0996 18.6505 31
    endloop
  endfacet
  facet normal -0.996575 0.0143603 -0.0814415
    outer loop
      vertex 23.0682 9.88668 22.9479
      vertex 22.4917 15.5453 31
      vertex 23.0682 16.5653 24.1255
    endloop
  endfacet
  facet normal -0.996575 0.0143603 -0.0814415
    outer loop
      vertex 23.0682 9.88668 22.9479
      vertex 22.3865 8.23968 31
      vertex 22.4917 15.5453 31
    endloop
  endfacet
  facet normal -0.996572 0.0196749 -0.0803542
    outer loop
      vertex 23.0682 6.76751 22.1841
      vertex 22.3865 8.23968 31
      vertex 23.0682 9.88668 22.9479
    endloop
  endfacet
  facet normal -0.996572 0.0196749 -0.0803542
    outer loop
      vertex 23.0682 6.76751 22.1841
      vertex 22.3413 5.94943 31
      vertex 22.3865 8.23968 31
    endloop
  endfacet
  facet normal -0.805685 -0.592232 0.0114821
    outer loop
      vertex 21.4472 22.2818 10.5722
      vertex 21.5895 22.0848 10.3887
      vertex 22.1204 21.3544 9.97364
    endloop
  endfacet
  facet normal -0.805685 -0.592232 0.0114821
    outer loop
      vertex 23.0682 20.2878 21.4674
      vertex 21.4472 22.2818 10.5722
      vertex 22.1204 21.3544 9.97364
    endloop
  endfacet
  facet normal -1 0 0
    outer loop
      vertex 23.0682 6.76751 22.1841
      vertex 23.0682 19.7576 24.4746
      vertex 23.0682 17.1687 20.7037
    endloop
  endfacet
  facet normal -1 0 0
    outer loop
      vertex 23.0682 10.49 19.5261
      vertex 23.0682 6.76751 22.1841
      vertex 23.0682 17.1687 20.7037
    endloop
  endfacet
  facet normal 0.805685 0.592232 -0.0114821
    outer loop
      vertex 3.2 5.94943 31
      vertex 3.78465 5.15406 31
      vertex 2.47302 6.76751 22.1841
    endloop
  endfacet
  facet normal 0.810004 -0.577515 -0.101831
    outer loop
      vertex 2.47302 19.7576 24.4746
      vertex 2.47302 20.2878 21.4674
      vertex 4.35652 22.8418 21.9653
    endloop
  endfacet
  facet normal 0.810004 -0.577515 -0.101831
    outer loop
      vertex 4.35652 22.3278 24.8803
      vertex 2.47302 19.7576 24.4746
      vertex 4.35652 22.8418 21.9653
    endloop
  endfacet
  facet normal 0.810004 0.577515 0.101831
    outer loop
      vertex 2.47302 6.76751 22.1841
      vertex 3.67739 5.13443 21.8658
      vertex 3.45278 5.69342 20.4822
    endloop
  endfacet
  facet normal 0.810004 0.577515 0.101831
    outer loop
      vertex 2.47302 7.29776 19.1769
      vertex 2.47302 6.76751 22.1841
      vertex 3.45278 5.69342 20.4822
    endloop
  endfacet
  facet normal -0.313204 -0.935258 -0.164911
    outer loop
      vertex 21.1847 22.8418 21.9653
      vertex 21.1847 22.3278 24.8803
      vertex 18.1372 23.855 22.0073
    endloop
  endfacet
  facet normal 0.313204 -0.935258 -0.164911
    outer loop
      vertex 7.40409 23.855 22.0073
      vertex 7.40409 23.2942 25.1874
      vertex 4.35652 22.3278 24.8803
    endloop
  endfacet
  facet normal 0.313204 -0.935258 -0.164911
    outer loop
      vertex 4.35652 22.8418 21.9653
      vertex 7.40409 23.855 22.0073
      vertex 4.35652 22.3278 24.8803
    endloop
  endfacet
  facet normal 0.307381 -0.913545 -0.266368
    outer loop
      vertex 7.40409 23.2942 25.1874
      vertex 7.90053 21.7665 31
      vertex 7.2744 21.5558 31
    endloop
  endfacet
  facet normal -0.315641 0.94684 0.0621645
    outer loop
      vertex 20.4191 3.34684 31
      vertex 20.8157 3.79577 26.1758
      vertex 19.2141 2.94514 31
    endloop
  endfacet
  facet normal -1 -8.68938e-016 7.94485e-015
    outer loop
      vertex 23.0682 9.88668 22.9479
      vertex 23.0682 16.5653 24.1255
      vertex 23.0682 19.7576 24.4746
    endloop
  endfacet
  facet normal -1 2.93083e-015 -1.66216e-014
    outer loop
      vertex 23.0682 6.76751 22.1841
      vertex 23.0682 9.88668 22.9479
      vertex 23.0682 19.7576 24.4746
    endloop
  endfacet
  facet normal -0.810004 0.577515 0.101831
    outer loop
      vertex 23.0682 7.29776 19.1769
      vertex 22.3263 6.28534 19.0172
      vertex 22.0885 5.69342 20.4822
    endloop
  endfacet
  facet normal -0.803762 0.555315 0.213522
    outer loop
      vertex 22.3497 6.98567 17.2838
      vertex 23.0682 7.29776 19.1769
      vertex 22.601 7.83174 16.0294
    endloop
  endfacet
  facet normal -0.803762 0.555315 0.213522
    outer loop
      vertex 22.3497 6.98567 17.2838
      vertex 22.3263 6.28534 19.0172
      vertex 23.0682 7.29776 19.1769
    endloop
  endfacet
  facet normal -0.996572 -0.0196749 0.0803542
    outer loop
      vertex 22.1204 21.3544 9.97364
      vertex 23.0682 17.1687 20.7037
      vertex 23.0682 20.2878 21.4674
    endloop
  endfacet
  facet normal -0.996572 -0.0196749 0.0803542
    outer loop
      vertex 22.1204 21.3544 9.97364
      vertex 22.0811 19.8484 9.1178
      vertex 23.0682 17.1687 20.7037
    endloop
  endfacet
  facet normal -0.996572 -0.0196749 0.0803542
    outer loop
      vertex 22.0811 19.8484 9.1178
      vertex 22.0739 19.5708 8.96
      vertex 23.0682 17.1687 20.7037
    endloop
  endfacet
  facet normal -1 0 0
    outer loop
      vertex 23.0682 17.1687 20.7037
      vertex 23.0682 19.7576 24.4746
      vertex 23.0682 20.2878 21.4674
    endloop
  endfacet
  facet normal 0 -0.984808 -0.173648
    outer loop
      vertex 7.40409 23.2942 25.1874
      vertex 18.1372 23.855 22.0073
      vertex 18.1372 23.2942 25.1874
    endloop
  endfacet
  facet normal 0 -0.984808 -0.173648
    outer loop
      vertex 7.40409 23.2942 25.1874
      vertex 7.40409 23.855 22.0073
      vertex 18.1372 23.855 22.0073
    endloop
  endfacet
  facet normal -0.315641 -0.911 -0.265423
    outer loop
      vertex 18.1372 23.2942 25.1874
      vertex 21.1847 22.3278 24.8803
      vertex 20.6669 20.7242 31
    endloop
  endfacet
  facet normal -0.315641 -0.911 -0.265423
    outer loop
      vertex 18.2668 21.5558 31
      vertex 18.1372 23.2942 25.1874
      vertex 20.6669 20.7242 31
    endloop
  endfacet
  facet normal -0.313204 -0.935258 -0.164911
    outer loop
      vertex 21.1847 22.3278 24.8803
      vertex 18.1372 23.2942 25.1874
      vertex 18.1372 23.855 22.0073
    endloop
  endfacet
  facet normal 0.803762 -0.594854 0.0107161
    outer loop
      vertex 2.47302 20.2878 21.4674
      vertex 4.09402 22.2818 10.5722
      vertex 4.39031 22.689 10.9514
    endloop
  endfacet
  facet normal 0.803762 -0.594854 0.0107161
    outer loop
      vertex 5.17895 23.7728 11.9606
      vertex 2.47302 20.2878 21.4674
      vertex 4.39031 22.689 10.9514
    endloop
  endfacet
  facet normal 0.803762 -0.594854 0.0107161
    outer loop
      vertex 4.35652 22.8418 21.9653
      vertex 2.47302 20.2878 21.4674
      vertex 5.17895 23.7728 11.9606
    endloop
  endfacet
  facet normal 0 -0.96715 -0.254206
    outer loop
      vertex 7.40409 23.2942 25.1874
      vertex 18.1372 23.2942 25.1874
      vertex 17.6407 21.7665 31
    endloop
  endfacet
  facet normal 0 -0.96715 -0.254206
    outer loop
      vertex 7.90053 21.7665 31
      vertex 7.40409 23.2942 25.1874
      vertex 17.6407 21.7665 31
    endloop
  endfacet
  facet normal 0.996572 -0.00899442 0.0822375
    outer loop
      vertex 2.47302 10.49 19.5261
      vertex 2.80027 8.309 15.3219
      vertex 3.00534 9.87004 13.0075
    endloop
  endfacet
  facet normal 0.996572 -0.00899442 0.0822375
    outer loop
      vertex 3.1908 11.2819 10.9144
      vertex 2.47302 10.49 19.5261
      vertex 3.00534 9.87004 13.0075
    endloop
  endfacet
  facet normal 0.996572 -0.00899442 0.0822375
    outer loop
      vertex 3.24113 11.8491 10.3666
      vertex 2.47302 10.49 19.5261
      vertex 3.1908 11.2819 10.9144
    endloop
  endfacet
  facet normal 0.996572 -0.00899442 0.0822375
    outer loop
      vertex 2.47302 10.49 19.5261
      vertex 2.47302 7.29776 19.1769
      vertex 2.80027 8.309 15.3219
    endloop
  endfacet
  facet normal 0.805685 0.552589 0.213345
    outer loop
      vertex 2.94024 7.83174 16.0294
      vertex 2.80027 8.309 15.3219
      vertex 2.47302 7.29776 19.1769
    endloop
  endfacet
  facet normal -0.810004 -0.577515 -0.101831
    outer loop
      vertex 23.0682 20.2878 21.4674
      vertex 21.1847 22.3278 24.8803
      vertex 21.1847 22.8418 21.9653
    endloop
  endfacet
  facet normal -0.803762 -0.594854 0.0107161
    outer loop
      vertex 20.3623 23.7728 11.9606
      vertex 21.4472 22.2818 10.5722
      vertex 23.0682 20.2878 21.4674
    endloop
  endfacet
  facet normal -0.803762 -0.594854 0.0107161
    outer loop
      vertex 21.1847 22.8418 21.9653
      vertex 20.3623 23.7728 11.9606
      vertex 23.0682 20.2878 21.4674
    endloop
  endfacet
  facet normal -0.315641 -0.94684 -0.0621645
    outer loop
      vertex 21.1847 22.8418 21.9653
      vertex 18.3396 24.4083 12.5523
      vertex 20.2321 23.8137 11.9987
    endloop
  endfacet
  facet normal -0.315641 -0.94684 -0.0621645
    outer loop
      vertex 20.3623 23.7728 11.9606
      vertex 21.1847 22.8418 21.9653
      vertex 20.2321 23.8137 11.9987
    endloop
  endfacet
  facet normal -0.315641 -0.94684 -0.0621645
    outer loop
      vertex 21.1847 22.8418 21.9653
      vertex 18.1372 23.855 22.0073
      vertex 18.3396 24.4083 12.5523
    endloop
  endfacet
  facet normal 0.805685 -0.592232 0.0114821
    outer loop
      vertex 2.47302 20.2878 21.4674
      vertex 3.42083 21.3544 9.97364
      vertex 3.48013 21.436 10.02
    endloop
  endfacet
  facet normal 0.805685 -0.592232 0.0114821
    outer loop
      vertex 3.95177 22.0848 10.3887
      vertex 4.09402 22.2818 10.5722
      vertex 3.48013 21.436 10.02
    endloop
  endfacet
  facet normal 0.805685 -0.592232 0.0114821
    outer loop
      vertex 4.09402 22.2818 10.5722
      vertex 2.47302 20.2878 21.4674
      vertex 3.48013 21.436 10.02
    endloop
  endfacet
  facet normal 0.805685 -0.552589 -0.213345
    outer loop
      vertex 3.44165 18.6505 31
      vertex 3.02694 18.0459 31
      vertex 2.47302 19.7576 24.4746
    endloop
  endfacet
  facet normal 0.810004 0.577515 0.101831
    outer loop
      vertex 3.45278 5.69342 20.4822
      vertex 3.21494 6.28534 19.0172
      vertex 2.47302 7.29776 19.1769
    endloop
  endfacet
  facet normal -0.307381 -0.949555 -0.0621465
    outer loop
      vertex 17.385 24.6919 12.9396
      vertex 18.094 24.4832 12.6221
      vertex 18.3396 24.4083 12.5523
    endloop
  endfacet
  facet normal -0.307381 -0.949555 -0.0621465
    outer loop
      vertex 18.1372 23.855 22.0073
      vertex 17.385 24.6919 12.9396
      vertex 18.3396 24.4083 12.5523
    endloop
  endfacet
  facet normal -3.69906e-016 -0.995767 -0.0919098
    outer loop
      vertex 18.1372 23.855 22.0073
      vertex 8.15627 24.6919 12.9396
      vertex 17.385 24.6919 12.9396
    endloop
  endfacet
  facet normal -0 -0.995767 -0.0919098
    outer loop
      vertex 18.1372 23.855 22.0073
      vertex 7.40409 23.855 22.0073
      vertex 8.15627 24.6919 12.9396
    endloop
  endfacet
  facet normal 0.307381 -0.949555 -0.0621465
    outer loop
      vertex 7.20164 24.4083 12.5523
      vertex 7.44725 24.4832 12.6221
      vertex 8.15627 24.6919 12.9396
    endloop
  endfacet
  facet normal 0.307381 -0.949555 -0.0621465
    outer loop
      vertex 7.40409 23.855 22.0073
      vertex 7.20164 24.4083 12.5523
      vertex 8.15627 24.6919 12.9396
    endloop
  endfacet
  facet normal 0.996572 -0.0196749 0.0803542
    outer loop
      vertex 2.47302 17.1687 20.7037
      vertex 3.46734 19.5708 8.96
      vertex 3.42083 21.3544 9.97364
    endloop
  endfacet
  facet normal 0.996572 -0.0196749 0.0803542
    outer loop
      vertex 2.47302 20.2878 21.4674
      vertex 2.47302 17.1687 20.7037
      vertex 3.42083 21.3544 9.97364
    endloop
  endfacet
  facet normal 0.803762 -0.555315 -0.213522
    outer loop
      vertex 2.47302 19.7576 24.4746
      vertex 4.35652 22.3278 24.8803
      vertex 4.87434 20.7242 31
    endloop
  endfacet
  facet normal 0.803762 -0.555315 -0.213522
    outer loop
      vertex 3.44165 18.6505 31
      vertex 2.47302 19.7576 24.4746
      vertex 4.87434 20.7242 31
    endloop
  endfacet
  facet normal 1 -1.36482e-016 -2.40654e-017
    outer loop
      vertex 2.47302 9.88668 22.9479
      vertex 2.47302 7.29776 19.1769
      vertex 2.47302 10.49 19.5261
    endloop
  endfacet
  facet normal 1 -1.28978e-016 -2.27423e-017
    outer loop
      vertex 2.47302 17.1687 20.7037
      vertex 2.47302 9.88668 22.9479
      vertex 2.47302 10.49 19.5261
    endloop
  endfacet
  facet normal 1 -1.36482e-016 -2.40654e-017
    outer loop
      vertex 2.47302 20.2878 21.4674
      vertex 2.47302 16.5653 24.1255
      vertex 2.47302 17.1687 20.7037
    endloop
  endfacet
  facet normal 1 -1.36482e-016 -2.40654e-017
    outer loop
      vertex 2.47302 19.7576 24.4746
      vertex 2.47302 16.5653 24.1255
      vertex 2.47302 20.2878 21.4674
    endloop
  endfacet
  facet normal 1 -1.28978e-016 -2.27423e-017
    outer loop
      vertex 2.47302 16.5653 24.1255
      vertex 2.47302 9.88668 22.9479
      vertex 2.47302 17.1687 20.7037
    endloop
  endfacet
  facet normal 1 -1.36482e-016 -2.40654e-017
    outer loop
      vertex 2.47302 9.88668 22.9479
      vertex 2.47302 6.76751 22.1841
      vertex 2.47302 7.29776 19.1769
    endloop
  endfacet
  facet normal 0.996572 0.00899442 -0.0822375
    outer loop
      vertex 2.47302 16.5653 24.1255
      vertex 2.47302 19.7576 24.4746
      vertex 3.02694 18.0459 31
    endloop
  endfacet
  facet normal 0.996572 0.00899442 -0.0822375
    outer loop
      vertex 3.04951 15.5453 31
      vertex 2.47302 16.5653 24.1255
      vertex 3.02694 18.0459 31
    endloop
  endfacet
  facet normal 0.996575 0.0143603 -0.0814415
    outer loop
      vertex 2.47302 9.88668 22.9479
      vertex 2.47302 16.5653 24.1255
      vertex 3.04951 15.5453 31
    endloop
  endfacet
  facet normal 0.996575 0.0143603 -0.0814415
    outer loop
      vertex 3.15478 8.23968 31
      vertex 2.47302 9.88668 22.9479
      vertex 3.04951 15.5453 31
    endloop
  endfacet
  facet normal 0.315641 0.94684 0.0621645
    outer loop
      vertex 5.12215 3.34684 31
      vertex 6.32714 2.94514 31
      vertex 4.72559 3.79577 26.1758
    endloop
  endfacet
  facet normal 0.996572 0.0196749 -0.0803542
    outer loop
      vertex 2.47302 6.76751 22.1841
      vertex 2.47302 9.88668 22.9479
      vertex 3.15478 8.23968 31
    endloop
  endfacet
  facet normal 0.996572 0.0196749 -0.0803542
    outer loop
      vertex 3.2 5.94943 31
      vertex 2.47302 6.76751 22.1841
      vertex 3.15478 8.23968 31
    endloop
  endfacet
  facet normal 5.42989e-016 0.984808 0.173648
    outer loop
      vertex 19.2141 2.94514 31
      vertex 4.72559 3.79577 26.1758
      vertex 6.32714 2.94514 31
    endloop
  endfacet
  facet normal 4.95821e-016 0.984808 0.173648
    outer loop
      vertex 19.2141 2.94514 31
      vertex 20.8157 3.79577 26.1758
      vertex 4.72559 3.79577 26.1758
    endloop
  endfacet
  facet normal 4.88725e-016 0.984808 0.173648
    outer loop
      vertex 20.8157 3.79577 26.1758
      vertex 4.4712 4.10763 24.4072
      vertex 4.72559 3.79577 26.1758
    endloop
  endfacet
  facet normal 5.11426e-016 0.984808 0.173648
    outer loop
      vertex 21.0701 4.10763 24.4072
      vertex 4.4712 4.10763 24.4072
      vertex 20.8157 3.79577 26.1758
    endloop
  endfacet
  facet normal 5.43625e-016 0.927184 0.374607
    outer loop
      vertex 22.3263 6.28534 19.0172
      vertex 3.21494 6.28534 19.0172
      vertex 3.45278 5.69342 20.4822
    endloop
  endfacet
  facet normal 4.751e-016 0.927184 0.374607
    outer loop
      vertex 3.67739 5.13443 21.8658
      vertex 22.0885 5.69342 20.4822
      vertex 3.45278 5.69342 20.4822
    endloop
  endfacet
  facet normal 5.26688e-016 0.927184 0.374607
    outer loop
      vertex 4.4712 4.10763 24.4072
      vertex 21.0701 4.10763 24.4072
      vertex 3.67739 5.13443 21.8658
    endloop
  endfacet
  facet normal 5.25609e-016 0.927184 0.374607
    outer loop
      vertex 21.0701 4.10763 24.4072
      vertex 21.8639 5.13443 21.8658
      vertex 3.67739 5.13443 21.8658
    endloop
  endfacet
  facet normal 5.25991e-016 0.927184 0.374607
    outer loop
      vertex 21.8639 5.13443 21.8658
      vertex 22.0885 5.69342 20.4822
      vertex 3.67739 5.13443 21.8658
    endloop
  endfacet
  facet normal 4.75825e-016 0.927184 0.374607
    outer loop
      vertex 22.0885 5.69342 20.4822
      vertex 22.3263 6.28534 19.0172
      vertex 3.45278 5.69342 20.4822
    endloop
  endfacet
  facet normal 5.43625e-016 0.927184 0.374607
    outer loop
      vertex 22.3263 6.28534 19.0172
      vertex 3.19156 6.98567 17.2838
      vertex 3.21494 6.28534 19.0172
    endloop
  endfacet
  facet normal 4.72831e-016 0.927184 0.374607
    outer loop
      vertex 22.3497 6.98567 17.2838
      vertex 3.19156 6.98567 17.2838
      vertex 22.3263 6.28534 19.0172
    endloop
  endfacet
  facet normal 1.75082e-015 0.829038 0.559193
    outer loop
      vertex 3.00534 9.87004 13.0075
      vertex 2.94024 7.83174 16.0294
      vertex 3.19156 6.98567 17.2838
    endloop
  endfacet
  facet normal 4.2278e-016 0.829038 0.559193
    outer loop
      vertex 22.3497 6.98567 17.2838
      vertex 22.6415 9.0666 14.1987
      vertex 3.19156 6.98567 17.2838
    endloop
  endfacet
  facet normal 1.349e-014 0.829038 0.559193
    outer loop
      vertex 22.601 7.83174 16.0294
      vertex 22.6415 9.0666 14.1987
      vertex 22.3497 6.98567 17.2838
    endloop
  endfacet
  facet normal -1.13215e-014 0.829038 0.559193
    outer loop
      vertex 22.741 8.309 15.3219
      vertex 22.6415 9.0666 14.1987
      vertex 22.601 7.83174 16.0294
    endloop
  endfacet
  facet normal 4.74786e-016 0.829038 0.559193
    outer loop
      vertex 22.6415 9.0666 14.1987
      vertex 3.00534 9.87004 13.0075
      vertex 3.19156 6.98567 17.2838
    endloop
  endfacet
  facet normal 3.13976e-015 0.829038 0.559193
    outer loop
      vertex 3.00534 9.87004 13.0075
      vertex 2.80027 8.309 15.3219
      vertex 2.94024 7.83174 16.0294
    endloop
  endfacet
  facet normal 4.24741e-016 0.829038 0.559193
    outer loop
      vertex 3.00534 9.87004 13.0075
      vertex 22.6415 9.0666 14.1987
      vertex 22.3504 11.2819 10.9144
    endloop
  endfacet
  facet normal 4.11141e-016 0.829038 0.559193
    outer loop
      vertex 3.1908 11.2819 10.9144
      vertex 3.00534 9.87004 13.0075
      vertex 22.3504 11.2819 10.9144
    endloop
  endfacet
  facet normal 3.91002e-016 0.694658 0.71934
    outer loop
      vertex 3.1908 11.2819 10.9144
      vertex 22.3504 11.2819 10.9144
      vertex 22.3001 11.8491 10.3666
    endloop
  endfacet
  facet normal 4.02983e-016 0.694658 0.71934
    outer loop
      vertex 22.0439 14.5943 7.71568
      vertex 3.24113 11.8491 10.3666
      vertex 22.3001 11.8491 10.3666
    endloop
  endfacet
  facet normal 3.69477e-016 0.694658 0.71934
    outer loop
      vertex 3.49732 14.5943 7.71568
      vertex 3.24113 11.8491 10.3666
      vertex 22.0439 14.5943 7.71568
    endloop
  endfacet
  facet normal 3.97667e-016 0.694658 0.71934
    outer loop
      vertex 3.24113 11.8491 10.3666
      vertex 3.1908 11.2819 10.9144
      vertex 22.3001 11.8491 10.3666
    endloop
  endfacet
  facet normal -1 0 0
    outer loop
      vertex 0 0 31
      vertex 0 29.7 0
      vertex 0 0 0
    endloop
  endfacet
  facet normal -1 0 0
    outer loop
      vertex 0 0 31
      vertex 0 29.7 31
      vertex 0 29.7 0
    endloop
  endfacet
  facet normal 0 -1 0
    outer loop
      vertex 33 0 0
      vertex 0 0 31
      vertex 0 0 0
    endloop
  endfacet
  facet normal 0 -1 0
    outer loop
      vertex 33 0 0
      vertex 33 0 31
      vertex 0 0 31
    endloop
  endfacet
  facet normal 0 0 -1
    outer loop
      vertex 0 29.7 0
      vertex 33 0 0
      vertex 0 0 0
    endloop
  endfacet
  facet normal 0 0 -1
    outer loop
      vertex 0 29.7 0
      vertex 33 29.7 0
      vertex 33 0 0
    endloop
  endfacet
  facet normal 0 1 0
    outer loop
      vertex 0 29.7 31
      vertex 33 29.7 0
      vertex 0 29.7 0
    endloop
  endfacet
  facet normal -0 1 0
    outer loop
      vertex 0 29.7 31
      vertex 33 29.7 31
      vertex 33 29.7 0
    endloop
  endfacet
  facet normal 0 0 1
    outer loop
      vertex 33 29.7 31
      vertex 0 29.7 31
      vertex 17.6407 21.7665 31
    endloop
  endfacet
  facet normal 0 0 1
    outer loop
      vertex 3.04951 15.5453 31
      vertex 0 29.7 31
      vertex 0 0 31
    endloop
  endfacet
  facet normal 0 0 1
    outer loop
      vertex 3.02694 18.0459 31
      vertex 0 29.7 31
      vertex 3.04951 15.5453 31
    endloop
  endfacet
  facet normal 0 0 1
    outer loop
      vertex 3.44165 18.6505 31
      vertex 0 29.7 31
      vertex 3.02694 18.0459 31
    endloop
  endfacet
  facet normal 0 0 1
    outer loop
      vertex 4.87434 20.7242 31
      vertex 0 29.7 31
      vertex 3.44165 18.6505 31
    endloop
  endfacet
  facet normal 0 0 1
    outer loop
      vertex 7.2744 21.5558 31
      vertex 0 29.7 31
      vertex 4.87434 20.7242 31
    endloop
  endfacet
  facet normal 0 0 1
    outer loop
      vertex 0 29.7 31
      vertex 7.90053 21.7665 31
      vertex 17.6407 21.7665 31
    endloop
  endfacet
  facet normal 0 0 1
    outer loop
      vertex 7.90053 21.7665 31
      vertex 0 29.7 31
      vertex 7.2744 21.5558 31
    endloop
  endfacet
  facet normal 0 0 1
    outer loop
      vertex 33 29.7 31
      vertex 17.6407 21.7665 31
      vertex 18.2668 21.5558 31
    endloop
  endfacet
  facet normal 0 0 1
    outer loop
      vertex 33 29.7 31
      vertex 18.2668 21.5558 31
      vertex 20.6669 20.7242 31
    endloop
  endfacet
  facet normal 0 0 1
    outer loop
      vertex 33 29.7 31
      vertex 20.6669 20.7242 31
      vertex 22.0996 18.6505 31
    endloop
  endfacet
  facet normal 0 0 1
    outer loop
      vertex 33 29.7 31
      vertex 22.0996 18.6505 31
      vertex 22.5143 18.0459 31
    endloop
  endfacet
  facet normal 0 0 1
    outer loop
      vertex 33 29.7 31
      vertex 22.4917 15.5453 31
      vertex 33 0 31
    endloop
  endfacet
  facet normal -0 0 1
    outer loop
      vertex 22.5143 18.0459 31
      vertex 22.4917 15.5453 31
      vertex 33 29.7 31
    endloop
  endfacet
  facet normal 0 0 1
    outer loop
      vertex 22.4917 15.5453 31
      vertex 22.3865 8.23968 31
      vertex 33 0 31
    endloop
  endfacet
  facet normal 0 0 1
    outer loop
      vertex 22.3865 8.23968 31
      vertex 22.3413 5.94943 31
      vertex 33 0 31
    endloop
  endfacet
  facet normal 0 0 1
    outer loop
      vertex 22.3413 5.94943 31
      vertex 21.7566 5.15406 31
      vertex 33 0 31
    endloop
  endfacet
  facet normal 0 0 1
    outer loop
      vertex 21.7566 5.15406 31
      vertex 20.4191 3.34684 31
      vertex 33 0 31
    endloop
  endfacet
  facet normal 0 0 1
    outer loop
      vertex 3.04951 15.5453 31
      vertex 0 0 31
      vertex 3.15478 8.23968 31
    endloop
  endfacet
  facet normal 0 0 1
    outer loop
      vertex 20.4191 3.34684 31
      vertex 19.2141 2.94514 31
      vertex 33 0 31
    endloop
  endfacet
  facet normal 0 0 1
    outer loop
      vertex 19.2141 2.94514 31
      vertex 0 0 31
      vertex 33 0 31
    endloop
  endfacet
  facet normal 0 0 1
    outer loop
      vertex 6.32714 2.94514 31
      vertex 0 0 31
      vertex 19.2141 2.94514 31
    endloop
  endfacet
  facet normal 0 0 1
    outer loop
      vertex 5.12215 3.34684 31
      vertex 0 0 31
      vertex 6.32714 2.94514 31
    endloop
  endfacet
  facet normal 0 0 1
    outer loop
      vertex 3.78465 5.15406 31
      vertex 0 0 31
      vertex 5.12215 3.34684 31
    endloop
  endfacet
  facet normal 0 0 1
    outer loop
      vertex 3.2 5.94943 31
      vertex 0 0 31
      vertex 3.78465 5.15406 31
    endloop
  endfacet
  facet normal 0 0 1
    outer loop
      vertex 3.15478 8.23968 31
      vertex 0 0 31
      vertex 3.2 5.94943 31
    endloop
  endfacet
  facet normal 1 0 0
    outer loop
      vertex 33 29.7 0
      vertex 33 0 31
      vertex 33 0 0
    endloop
  endfacet
  facet normal 1 0 -0
    outer loop
      vertex 33 29.7 0
      vertex 33 29.7 31
      vertex 33 0 31
    endloop
  endfacet
endsolid OpenSCAD_Model
